<svg width="20" height="20" viewBox="0 0 20 20" fill="none" xmlns="http://www.w3.org/2000/svg">
<mask id="mask0_1509_11171" style="mask-type:alpha" maskUnits="userSpaceOnUse" x="0" y="0" width="20" height="20">
<rect width="20" height="20" fill="#D9D9D9"/>
</mask>
<g mask="url(#mask0_1509_11171)">
<path d="M6.33021 10.0001L9.71167 13.3942C9.82694 13.5096 9.88806 13.6526 9.895 13.823C9.90194 13.9934 9.84083 14.1433 9.71167 14.2726C9.59083 14.3933 9.44444 14.4536 9.2725 14.4536C9.10056 14.4536 8.95417 14.3933 8.83333 14.2726L5.08833 10.5274C5.01028 10.4493 4.95521 10.367 4.92312 10.2805C4.89104 10.194 4.875 10.1005 4.875 10.0001C4.875 9.89965 4.89104 9.80618 4.92312 9.71965C4.95521 9.63312 5.01028 9.55083 5.08833 9.47277L8.83333 5.72757C8.94875 5.61229 9.09167 5.55118 9.26208 5.54423C9.4325 5.53729 9.58236 5.5984 9.71167 5.72757C9.83236 5.8484 9.89271 5.99479 9.89271 6.16673C9.89271 6.33868 9.83236 6.48507 9.71167 6.6059L6.33021 10.0001ZM11.6219 10.0001L15.0033 13.3942C15.1186 13.5096 15.1797 13.6526 15.1867 13.823C15.1936 13.9934 15.1325 14.1433 15.0033 14.2726C14.8825 14.3933 14.7361 14.4536 14.5642 14.4536C14.3922 14.4536 14.2458 14.3933 14.125 14.2726L10.3798 10.5274C10.3019 10.4493 10.2469 10.367 10.2148 10.2805C10.1827 10.194 10.1667 10.1005 10.1667 10.0001C10.1667 9.89965 10.1827 9.80618 10.2148 9.71965C10.2469 9.63312 10.3019 9.55083 10.3798 9.47277L14.125 5.72757C14.2404 5.61229 14.3833 5.55118 14.5538 5.54423C14.7242 5.53729 14.874 5.5984 15.0033 5.72757C15.124 5.8484 15.1844 5.99479 15.1844 6.16673C15.1844 6.33868 15.124 6.48507 15.0033 6.6059L11.6219 10.0001Z" fill="white"/>
</g>
</svg>
