<svg width="16" height="16" viewBox="0 0 16 16" fill="none" xmlns="http://www.w3.org/2000/svg">
<path d="M7.91667 15.8333C6.83125 15.8333 5.80694 15.6253 4.84375 15.2092C3.88056 14.7931 3.04056 14.2265 2.32375 13.5096C1.60681 12.7928 1.04028 11.9528 0.624167 10.9896C0.208056 10.0264 0 9.00208 0 7.91667C0 6.82264 0.208056 5.79618 0.624167 4.83729C1.04028 3.8784 1.60681 3.04056 2.32375 2.32375C3.04056 1.60681 3.88056 1.04028 4.84375 0.624167C5.80694 0.208056 6.83125 0 7.91667 0C9.01069 0 10.0372 0.208056 10.996 0.624167C11.9549 1.04028 12.7928 1.60681 13.5096 2.32375C14.2265 3.04056 14.7931 3.8784 15.2092 4.83729C15.6253 5.79618 15.8333 6.82264 15.8333 7.91667C15.8333 9.00208 15.6253 10.0264 15.2092 10.9896C14.7931 11.9528 14.2265 12.7928 13.5096 13.5096C12.7928 14.2265 11.9549 14.7931 10.996 15.2092C10.0372 15.6253 9.01069 15.8333 7.91667 15.8333ZM7.91667 14.5656C8.34194 14.0016 8.69986 13.4327 8.99042 12.859C9.28097 12.2852 9.51764 11.6581 9.70042 10.9775H6.13292C6.32639 11.6794 6.56576 12.3173 6.85104 12.891C7.13618 13.4648 7.49139 14.023 7.91667 14.5656ZM6.30292 14.3365C5.98347 13.8781 5.6966 13.3571 5.44229 12.7733C5.18799 12.1894 4.99035 11.5908 4.84937 10.9775H2.0225C2.46264 11.8429 3.05292 12.57 3.79333 13.1587C4.53375 13.7474 5.37028 14.1399 6.30292 14.3365ZM9.53042 14.3365C10.4631 14.1399 11.2996 13.7474 12.04 13.1587C12.7804 12.57 13.3707 11.8429 13.8108 10.9775H10.984C10.8162 11.5961 10.6051 12.1974 10.3508 12.7812C10.0967 13.3651 9.82319 13.8835 9.53042 14.3365ZM1.49833 9.7275H4.59625C4.54389 9.41778 4.5059 9.1141 4.48229 8.81646C4.45882 8.51896 4.44708 8.21903 4.44708 7.91667C4.44708 7.61431 4.45882 7.31437 4.48229 7.01687C4.5059 6.71924 4.54389 6.41556 4.59625 6.10583H1.49833C1.41819 6.38889 1.35681 6.68319 1.31417 6.98875C1.27139 7.29431 1.25 7.60361 1.25 7.91667C1.25 8.22972 1.27139 8.53903 1.31417 8.84458C1.35681 9.15014 1.41819 9.44444 1.49833 9.7275ZM5.84604 9.7275H9.98729C10.0395 9.41778 10.0774 9.11681 10.101 8.82458C10.1245 8.53236 10.1362 8.22972 10.1362 7.91667C10.1362 7.60361 10.1245 7.30097 10.101 7.00875C10.0774 6.71653 10.0395 6.41556 9.98729 6.10583H5.84604C5.79382 6.41556 5.7559 6.71653 5.73229 7.00875C5.70882 7.30097 5.69708 7.60361 5.69708 7.91667C5.69708 8.22972 5.70882 8.53236 5.73229 8.82458C5.7559 9.11681 5.79382 9.41778 5.84604 9.7275ZM11.2371 9.7275H14.335C14.4151 9.44444 14.4765 9.15014 14.5192 8.84458C14.5619 8.53903 14.5833 8.22972 14.5833 7.91667C14.5833 7.60361 14.5619 7.29431 14.5192 6.98875C14.4765 6.68319 14.4151 6.38889 14.335 6.10583H11.2371C11.2894 6.41556 11.3274 6.71924 11.351 7.01687C11.3745 7.31437 11.3862 7.61431 11.3862 7.91667C11.3862 8.21903 11.3745 8.51896 11.351 8.81646C11.3274 9.1141 11.2894 9.41778 11.2371 9.7275ZM10.984 4.85583H13.8108C13.3654 3.97972 12.7792 3.25264 12.0521 2.67458C11.325 2.09667 10.4844 1.70139 9.53042 1.48875C9.84986 1.97375 10.134 2.50424 10.3829 3.08021C10.6319 3.65604 10.8323 4.24792 10.984 4.85583ZM6.13292 4.85583H9.70042C9.50694 4.15917 9.26361 3.51729 8.97042 2.93021C8.67708 2.34313 8.32583 1.78896 7.91667 1.26771C7.5075 1.78896 7.15625 2.34313 6.86292 2.93021C6.56972 3.51729 6.32639 4.15917 6.13292 4.85583ZM2.0225 4.85583H4.84937C5.00104 4.24792 5.20139 3.65604 5.45042 3.08021C5.69931 2.50424 5.98347 1.97375 6.30292 1.48875C5.34347 1.70139 4.5016 2.09806 3.77729 2.67875C3.05285 3.25931 2.46792 3.985 2.0225 4.85583Z" fill="#A7A8AC"/>
</svg>
