<svg width="16" height="26" viewBox="0 0 16 26" fill="none" xmlns="http://www.w3.org/2000/svg">
<path d="M1.59855 12.7816C2.4814 12.7816 3.1971 13.4969 3.1971 14.3793C3.1971 14.6996 3.25601 15.0366 3.48262 15.2631L3.91129 15.6915C4.13791 15.918 4.47511 15.977 4.79561 15.977H11.1898C12.0727 15.977 12.7884 16.6923 12.7884 17.5747C12.7884 17.9135 12.8463 18.272 13.086 18.5115L13.4495 18.8749C13.6892 19.1145 14.0479 19.1724 14.3869 19.1724C15.2698 19.1724 15.9855 19.8877 15.9855 20.7701C15.9855 21.6525 15.2698 22.3678 14.3869 22.3678C14.0545 22.3678 13.7036 22.4261 13.4686 22.6609L13.0817 23.0477C12.8466 23.2826 12.7884 23.6333 12.7884 23.9655C12.7884 24.8479 12.0727 25.5632 11.1898 25.5632H4.79561C3.91276 25.5632 3.19706 24.8479 3.19706 23.9655C3.19706 23.7029 3.13827 23.4312 2.95244 23.2455L2.31885 22.6122C2.13305 22.4265 1.8613 22.3678 1.59855 22.3678C0.715695 22.3678 0 21.6525 0 20.7701C0 19.8877 0.715695 19.1724 1.59855 19.1724C2.4814 19.1724 3.1971 19.8877 3.1971 20.7701C3.1971 21.2133 3.23994 21.6981 3.5535 22.0115C3.86707 22.3249 4.35215 22.3678 4.79561 22.3678H11.1898C11.5712 22.3678 11.9799 22.3141 12.2496 22.0446L12.465 21.8293C12.7347 21.5598 12.7884 21.1513 12.7884 20.7701C12.7884 20.3953 12.7339 19.9943 12.4687 19.7293L12.2312 19.4919C11.966 19.2268 11.5649 19.1724 11.1898 19.1724H4.79561C3.91276 19.1724 3.19706 18.4571 3.19706 17.5747C3.19706 17.1823 3.14495 16.7603 2.86733 16.4828L2.69088 16.3065C2.41329 16.029 1.99112 15.977 1.59855 15.977C0.715695 15.977 0 15.2617 0 14.3793C0 13.4969 0.715695 12.7816 1.59855 12.7816Z" fill="white"/>
<path d="M1.59855 3.1954C2.4814 3.19541 3.1971 3.91072 3.1971 4.7931V7.98851C3.1971 8.32732 3.25501 8.68577 3.49471 8.92535L3.85821 9.28865C4.09793 9.52824 4.4566 9.58621 4.79561 9.58621H7.99271C8.87556 9.58621 9.59126 10.3015 9.59126 11.1839C9.59126 12.0663 8.87556 12.7816 7.99271 12.7816H4.79561C3.91276 12.7816 3.19706 12.0663 3.19706 11.1839C3.19706 10.8091 3.1426 10.4081 2.8774 10.1431L2.63988 9.90567C2.3747 9.64063 1.97358 9.5862 1.59855 9.58621C0.715695 9.58621 0 8.87089 0 7.98851V4.7931C0 3.91072 0.715695 3.1954 1.59855 3.1954Z" fill="white"/>
<path d="M7.99271 0C8.87556 0 9.59126 0.715316 9.59126 1.5977C9.59126 1.89489 9.65076 2.20542 9.86101 2.41556L10.3714 2.92573C10.5817 3.13589 10.8924 3.19541 11.1898 3.1954C12.0727 3.1954 12.7884 3.91072 12.7884 4.7931V7.98851C12.7884 8.87089 12.0727 9.58621 11.1898 9.58621C10.307 9.5862 9.59126 8.87089 9.59126 7.98851V4.7931C9.59126 4.37964 9.54266 3.93205 9.25014 3.63969L9.14668 3.5363C8.85417 3.24395 8.40637 3.1954 7.99271 3.1954H4.79561C3.91276 3.19539 3.19706 2.48008 3.19706 1.5977C3.19706 0.715321 3.91276 8.10897e-06 4.79561 0H7.99271Z" fill="white"/>
<path d="M14.3869 0C15.2698 0 15.9855 0.715316 15.9855 1.5977C15.9855 2.48009 15.2698 3.1954 14.3869 3.1954C13.5041 3.19539 12.7884 2.48008 12.7884 1.5977C12.7884 0.715321 13.5041 8.10792e-06 14.3869 0Z" fill="white"/>
</svg>