<svg width="129" height="32" viewBox="0 0 129 32" fill="none" xmlns="http://www.w3.org/2000/svg">
<path d="M126.145 6.43678H129L121.952 25.7471H119.109L121.437 19.3103L116.82 6.43678H119.739L122.775 15.6414L126.145 6.43678Z" fill="white"/>
<path d="M107.124 19.3102V6.43661H109.799V7.80121C110.245 7.2691 110.794 6.84856 111.445 6.5396C112.097 6.23063 112.8 6.07615 113.555 6.07615C114.035 6.07615 114.511 6.14052 114.982 6.26925L113.915 8.9727C113.581 8.84396 113.246 8.7796 112.912 8.7796C112.346 8.7796 111.827 8.92121 111.355 9.20442C110.884 9.47906 110.507 9.85239 110.224 10.3244C109.941 10.7965 109.799 11.32 109.799 11.895V19.3102H107.124Z" fill="white"/>
<path d="M98.8556 19.6449C97.6723 19.6449 96.5919 19.3402 95.6144 18.7309C94.6454 18.1215 93.8694 17.3062 93.2864 16.2849C92.7119 15.255 92.4246 14.1178 92.4246 12.8734C92.4246 11.9293 92.5918 11.0496 92.9262 10.2343C93.2607 9.4104 93.7194 8.68948 94.3025 8.07155C94.8941 7.44504 95.5801 6.95584 96.3604 6.60396C97.1407 6.25209 97.9724 6.07615 98.8556 6.07615C100.039 6.07615 101.115 6.38082 102.084 6.99017C103.061 7.59952 103.837 8.41914 104.412 9.44902C104.995 10.4789 105.286 11.6204 105.286 12.8734C105.286 13.8089 105.119 14.6843 104.785 15.4996C104.45 16.3149 103.987 17.0358 103.396 17.6624C102.813 18.2803 102.131 18.7652 101.351 19.1171C100.579 19.4689 99.7473 19.6449 98.8556 19.6449ZM98.8556 16.9672C99.5673 16.9672 100.206 16.7784 100.772 16.4007C101.338 16.0231 101.784 15.5253 102.11 14.9074C102.444 14.2809 102.611 13.6029 102.611 12.8734C102.611 12.1267 102.44 11.4401 102.097 10.8136C101.762 10.1871 101.312 9.68933 100.746 9.32029C100.18 8.94266 99.5501 8.75385 98.8556 8.75385C98.1525 8.75385 97.5136 8.94266 96.9391 9.32029C96.3732 9.69791 95.9231 10.2 95.5886 10.8265C95.2628 11.453 95.0999 12.1353 95.0999 12.8734C95.0999 13.6372 95.2714 14.3281 95.6144 14.946C95.9574 15.564 96.4118 16.0575 96.9777 16.4265C97.5522 16.787 98.1782 16.9672 98.8556 16.9672Z" fill="white"/>
<path d="M87.9119 19.3103V0H90.5871V19.3103H87.9119Z" fill="white"/>
<path d="M60.7468 19.6449C59.5635 19.6449 58.4831 19.3402 57.5056 18.7309C56.5367 18.1215 55.7607 17.3062 55.1776 16.2849C54.6031 15.255 54.3159 14.1178 54.3159 12.8734C54.3159 11.9293 54.4831 11.0496 54.8175 10.2343C55.1519 9.4104 55.6106 8.68948 56.1937 8.07155C56.7854 7.44504 57.4713 6.95584 58.2516 6.60396C59.0319 6.25209 59.8636 6.07615 60.7468 6.07615C61.7329 6.07615 62.6375 6.28213 63.4607 6.69408C64.2838 7.09745 64.9869 7.6596 65.57 8.38052C66.1531 9.09285 66.5818 9.91676 66.8562 10.8522C67.1306 11.7791 67.212 12.7661 67.1006 13.8132H57.1841C57.2955 14.4053 57.5099 14.9417 57.8272 15.4224C58.153 15.8944 58.5646 16.2677 59.0619 16.5424C59.5678 16.817 60.1294 16.9586 60.7468 16.9672C61.3985 16.9672 61.9901 16.8041 62.5217 16.478C63.0619 16.1519 63.5035 15.7013 63.8465 15.1263L66.5604 15.7571C66.0459 16.8985 65.2699 17.834 64.2324 18.5635C63.1949 19.2844 62.033 19.6449 60.7468 19.6449ZM57.094 11.7663H64.3996C64.3138 11.1483 64.0952 10.5905 63.7436 10.0927C63.4006 9.58634 62.9676 9.18726 62.4446 8.89546C61.9301 8.59508 61.3642 8.44488 60.7468 8.44488C60.138 8.44488 59.5721 8.59079 59.049 8.88259C58.5346 9.17439 58.1058 9.57347 57.7629 10.0798C57.4284 10.5776 57.2055 11.1398 57.094 11.7663Z" fill="white"/>
<path d="M32.1952 19.3102V6.43661H34.8705V7.80121C35.3163 7.2691 35.8608 6.84856 36.5039 6.5396C37.1556 6.23063 37.8587 6.07615 38.6133 6.07615C39.5307 6.07615 40.3753 6.29929 41.1471 6.74557C41.9188 7.18328 42.5318 7.76688 42.9863 8.49638C43.4408 7.76688 44.0453 7.18328 44.7998 6.74557C45.563 6.29929 46.4033 6.07615 47.3207 6.07615C48.2725 6.07615 49.1386 6.30787 49.9188 6.77132C50.6991 7.23477 51.3208 7.85699 51.7838 8.63799C52.2468 9.41898 52.4783 10.2858 52.4783 11.2384V19.3102H49.8031V11.9207C49.8031 11.3543 49.6659 10.8351 49.3915 10.363C49.1171 9.89102 48.7484 9.5091 48.2854 9.2173C47.8224 8.9255 47.3079 8.7796 46.742 8.7796C46.176 8.7796 45.6616 8.91691 45.1985 9.19155C44.7355 9.46619 44.3668 9.83952 44.0924 10.3116C43.818 10.7836 43.6808 11.32 43.6808 11.9207V19.3102H41.0056V11.9207C41.0056 11.32 40.8684 10.7836 40.594 10.3116C40.3196 9.83952 39.9466 9.46619 39.475 9.19155C39.012 8.91691 38.4975 8.7796 37.9316 8.7796C37.3742 8.7796 36.8598 8.9255 36.3882 9.2173C35.9251 9.5091 35.5564 9.89102 35.282 10.363C35.0077 10.8351 34.8705 11.3543 34.8705 11.9207V19.3102H32.1952Z" fill="white"/>
<path d="M27.6824 6.43661H30.3577V19.3102H27.6695L27.5666 17.4435C27.1894 18.1043 26.6792 18.6365 26.0361 19.0398C25.393 19.4432 24.6341 19.6449 23.7595 19.6449C22.8163 19.6449 21.9289 19.4689 21.0971 19.1171C20.2654 18.7566 19.5323 18.2588 18.8977 17.6237C18.2718 16.9886 17.7831 16.2591 17.4315 15.4352C17.0799 14.6027 16.9042 13.7102 16.9042 12.7575C16.9042 11.8392 17.0756 10.9767 17.4186 10.1699C17.7616 9.35462 18.2375 8.64228 18.8463 8.03293C19.4551 7.42358 20.1582 6.94726 20.9556 6.60396C21.7617 6.25209 22.6234 6.07615 23.5409 6.07615C24.4755 6.07615 25.2987 6.29071 26.0104 6.71983C26.7306 7.14036 27.3266 7.68105 27.7982 8.3419L27.6824 6.43661ZM23.6952 17.0573C24.4498 17.0573 25.11 16.8728 25.6759 16.5037C26.2419 16.1261 26.6792 15.6198 26.9879 14.9847C27.3051 14.3496 27.4637 13.6458 27.4637 12.8734C27.4637 12.0924 27.3051 11.3843 26.9879 10.7493C26.6706 10.1142 26.229 9.61209 25.6631 9.24304C25.1057 8.86542 24.4498 8.67661 23.6952 8.67661C22.9492 8.67661 22.2676 8.86542 21.6502 9.24304C21.0328 9.62067 20.5441 10.127 20.1839 10.7621C19.8238 11.3972 19.6437 12.101 19.6437 12.8734C19.6437 13.6544 19.8281 14.3624 20.1968 14.9975C20.5741 15.624 21.0671 16.1261 21.6759 16.5037C22.2933 16.8728 22.9664 17.0573 23.6952 17.0573Z" fill="white"/>
<path d="M1.59855 19.2184C2.4814 19.2184 3.1971 19.9337 3.1971 20.8161C3.1971 21.1364 3.25601 21.4734 3.48262 21.6999L3.91129 22.1283C4.13791 22.3548 4.47511 22.4138 4.79561 22.4138H11.1898C12.0727 22.4138 12.7884 23.1291 12.7884 24.0115C12.7884 24.3503 12.8463 24.7088 13.086 24.9483L13.4495 25.3116C13.6892 25.5512 14.0479 25.6092 14.3869 25.6092C15.2698 25.6092 15.9855 26.3245 15.9855 27.2069C15.9855 28.0893 15.2698 28.8046 14.3869 28.8046C14.0545 28.8046 13.7036 28.8628 13.4686 29.0977L13.0817 29.4844C12.8466 29.7193 12.7884 30.0701 12.7884 30.4023C12.7884 31.2847 12.0727 32 11.1898 32H4.79561C3.91276 32 3.19706 31.2847 3.19706 30.4023C3.19706 30.1396 3.13827 29.868 2.95244 29.6823L2.31885 29.049C2.13305 28.8633 1.8613 28.8046 1.59855 28.8046C0.715695 28.8046 0 28.0893 0 27.2069C0 26.3245 0.715695 25.6092 1.59855 25.6092C2.4814 25.6092 3.1971 26.3245 3.1971 27.2069C3.1971 27.6501 3.23994 28.1349 3.5535 28.4483C3.86707 28.7617 4.35215 28.8046 4.79561 28.8046H11.1898C11.5712 28.8046 11.9799 28.7509 12.2496 28.4814L12.465 28.2661C12.7347 27.9966 12.7884 27.5881 12.7884 27.2069C12.7884 26.832 12.7339 26.4311 12.4687 26.166L12.2312 25.9287C11.966 25.6636 11.5649 25.6092 11.1898 25.6092H4.79561C3.91276 25.6092 3.19706 24.8939 3.19706 24.0115C3.19706 23.6191 3.14495 23.1971 2.86733 22.9196L2.69088 22.7433C2.41329 22.4658 1.99112 22.4138 1.59855 22.4138C0.715695 22.4138 0 21.6985 0 20.8161C0 19.9337 0.715695 19.2184 1.59855 19.2184Z" fill="white"/>
<path d="M1.59855 9.63218C2.4814 9.63219 3.1971 10.3475 3.1971 11.2299V14.4253C3.1971 14.7641 3.25501 15.1225 3.49471 15.3621L3.85821 15.7254C4.09793 15.965 4.4566 16.023 4.79561 16.023H7.99271C8.87556 16.023 9.59126 16.7383 9.59126 17.6207C9.59126 18.5031 8.87556 19.2184 7.99271 19.2184H4.79561C3.91276 19.2184 3.19706 18.5031 3.19706 17.6207C3.19706 17.2458 3.1426 16.8449 2.8774 16.5798L2.63988 16.3425C2.3747 16.0774 1.97358 16.023 1.59855 16.023C0.715695 16.023 0 15.3077 0 14.4253V11.2299C0 10.3475 0.715695 9.63218 1.59855 9.63218Z" fill="white"/>
<path d="M7.99271 6.43678C8.87556 6.43678 9.59126 7.1521 9.59126 8.03448C9.59126 8.33167 9.65076 8.6422 9.86101 8.85235L10.3714 9.36251C10.5817 9.57267 10.8924 9.63219 11.1898 9.63218C12.0727 9.63218 12.7884 10.3475 12.7884 11.2299V14.4253C12.7884 15.3077 12.0727 16.023 11.1898 16.023C10.307 16.023 9.59126 15.3077 9.59126 14.4253V11.2299C9.59126 10.8164 9.54266 10.3688 9.25014 10.0765L9.14668 9.97308C8.85417 9.68073 8.40637 9.63218 7.99271 9.63218H4.79561C3.91276 9.63218 3.19706 8.91686 3.19706 8.03448C3.19706 7.1521 3.91276 6.43679 4.79561 6.43678H7.99271Z" fill="white"/>
<path d="M14.3869 6.43678C15.2698 6.43678 15.9855 7.1521 15.9855 8.03448C15.9855 8.91687 15.2698 9.63218 14.3869 9.63218C13.5041 9.63218 12.7884 8.91686 12.7884 8.03448C12.7884 7.1521 13.5041 6.43679 14.3869 6.43678Z" fill="white"/>
<path d="M71.5037 19.2184C72.3865 19.2184 73.1022 19.9337 73.1022 20.8161C73.1022 21.1364 73.1611 21.4734 73.3878 21.6999L73.8164 22.1283C74.043 22.3548 74.3802 22.4138 74.7007 22.4138H81.0949C81.9778 22.4138 82.6935 23.1291 82.6935 24.0115C82.6935 24.3503 82.7514 24.7088 82.9911 24.9483L83.3546 25.3116C83.5944 25.5512 83.953 25.6092 84.292 25.6092C85.1749 25.6092 85.8906 26.3245 85.8906 27.2069C85.8906 28.0893 85.1749 28.8046 84.292 28.8046C83.9597 28.8046 83.6088 28.8628 83.3737 29.0977L82.9868 29.4844C82.7518 29.7193 82.6935 30.0701 82.6935 30.4023C82.6935 31.2847 81.9778 32 81.0949 32H74.7007C73.8179 32 73.1022 31.2847 73.1022 30.4023C73.1022 30.1396 73.0434 29.868 72.8576 29.6823L72.224 29.049C72.0382 28.8633 71.7664 28.8046 71.5037 28.8046C70.6208 28.8046 69.9051 28.0893 69.9051 27.2069C69.9051 26.3245 70.6208 25.6092 71.5037 25.6092C72.3865 25.6092 73.1022 26.3245 73.1022 27.2069C73.1022 27.6501 73.1451 28.1349 73.4586 28.4483C73.7722 28.7617 74.2573 28.8046 74.7007 28.8046H81.0949C81.4763 28.8046 81.8851 28.7509 82.1548 28.4814L82.3701 28.2661C82.6398 27.9966 82.6935 27.5881 82.6935 27.2069C82.6935 26.832 82.639 26.4311 82.3738 26.166L82.1363 25.9287C81.8711 25.6636 81.47 25.6092 81.0949 25.6092H74.7007C73.8179 25.6092 73.1022 24.8939 73.1022 24.0115C73.1022 23.6191 73.0501 23.1971 72.7725 22.9196L72.596 22.7433C72.3184 22.4658 71.8963 22.4138 71.5037 22.4138C70.6208 22.4138 69.9051 21.6985 69.9051 20.8161C69.9051 19.9337 70.6208 19.2184 71.5037 19.2184Z" fill="white"/>
<path d="M71.5037 9.63218C72.3865 9.63219 73.1022 10.3475 73.1022 11.2299V14.4253C73.1022 14.7641 73.1601 15.1225 73.3998 15.3621L73.7633 15.7254C74.0031 15.965 74.3617 16.023 74.7007 16.023H77.8978C78.7807 16.023 79.4964 16.7383 79.4964 17.6207C79.4964 18.5031 78.7807 19.2184 77.8978 19.2184H74.7007C73.8179 19.2184 73.1022 18.5031 73.1022 17.6207C73.1022 17.2458 73.0477 16.8449 72.7825 16.5798L72.545 16.3425C72.2798 16.0774 71.8787 16.023 71.5037 16.023C70.6208 16.023 69.9051 15.3077 69.9051 14.4253V11.2299C69.9051 10.3475 70.6208 9.63218 71.5037 9.63218Z" fill="white"/>
<path d="M77.8978 6.43678C78.7807 6.43678 79.4964 7.1521 79.4964 8.03448C79.4964 8.33167 79.5559 8.6422 79.7662 8.85235L80.2766 9.36251C80.4869 9.57267 80.7976 9.63219 81.0949 9.63218C81.9778 9.63218 82.6935 10.3475 82.6935 11.2299V14.4253C82.6935 15.3077 81.9778 16.023 81.0949 16.023C80.2121 16.023 79.4964 15.3077 79.4964 14.4253V11.2299C79.4964 10.8164 79.4478 10.3688 79.1553 10.0765L79.0518 9.97308C78.7593 9.68073 78.3115 9.63218 77.8978 9.63218H74.7007C73.8179 9.63218 73.1022 8.91686 73.1022 8.03448C73.1022 7.1521 73.8179 6.43679 74.7007 6.43678H77.8978Z" fill="white"/>
<path d="M84.292 6.43678C85.1749 6.43678 85.8906 7.1521 85.8906 8.03448C85.8906 8.91687 85.1749 9.63218 84.292 9.63218C83.4092 9.63218 82.6935 8.91686 82.6935 8.03448C82.6935 7.1521 83.4092 6.43679 84.292 6.43678Z" fill="white"/>
</svg>