<svg width="16" height="15" viewBox="0 0 16 15" fill="none" xmlns="http://www.w3.org/2000/svg">
<path d="M15 13.8333C14.9317 13.9401 14.8182 14.0008 14.6596 14.0152C14.5008 14.0297 14.3584 13.9738 14.2323 13.8477L12.5642 12.1794H4.42313C4.01771 12.1794 3.67063 12.035 3.38188 11.7462C3.09313 11.4576 2.94875 11.1106 2.94875 10.705V10.1923H12.0194C12.4335 10.1923 12.7881 10.0448 13.0831 9.74979C13.3781 9.45479 13.5256 9.10014 13.5256 8.68583V2.91667H14.0385C14.444 2.91667 14.791 3.06104 15.0798 3.34979C15.3685 3.63854 15.5129 3.98563 15.5129 4.39104V13.3077C15.5129 13.4615 15.4616 13.5875 15.359 13.6858C15.2565 13.7842 15.1368 13.8333 15 13.8333ZM0.750625 10.4198C0.556875 10.4198 0.383333 10.3493 0.23 10.2083C0.0766667 10.0672 0 9.88118 0 9.65021V1.50646C0 1.09215 0.1475 0.7375 0.4425 0.4425C0.7375 0.1475 1.09215 0 1.50646 0H10.3527C10.7669 0 11.1215 0.1475 11.4165 0.4425C11.7115 0.7375 11.859 1.09215 11.859 1.50646V7.01917C11.859 7.43347 11.7115 7.78812 11.4165 8.08312C11.1215 8.37812 10.7669 8.52562 10.3527 8.52562H2.94875L1.28063 10.194C1.20257 10.2719 1.11896 10.329 1.02979 10.3654C0.940486 10.4017 0.847431 10.4198 0.750625 10.4198Z" fill="#A7A8AC"/>
</svg>