<svg width="13" height="16" viewBox="0 0 13 16" fill="none" xmlns="http://www.w3.org/2000/svg">
<path d="M3.75 12.7083H8.75C8.92708 12.7083 9.07549 12.6484 9.19521 12.5285C9.31507 12.4087 9.375 12.2602 9.375 12.0831C9.375 11.9059 9.31507 11.7575 9.19521 11.6379C9.07549 11.5182 8.92708 11.4583 8.75 11.4583H3.75C3.57292 11.4583 3.42451 11.5183 3.30479 11.6381C3.18493 11.758 3.125 11.9065 3.125 12.0835C3.125 12.2608 3.18493 12.4092 3.30479 12.5287C3.42451 12.6485 3.57292 12.7083 3.75 12.7083ZM3.75 9.375H8.75C8.92708 9.375 9.07549 9.31507 9.19521 9.19521C9.31507 9.07535 9.375 8.92688 9.375 8.74979C9.375 8.57257 9.31507 8.42417 9.19521 8.30458C9.07549 8.18486 8.92708 8.125 8.75 8.125H3.75C3.57292 8.125 3.42451 8.18493 3.30479 8.30479C3.18493 8.42465 3.125 8.57313 3.125 8.75021C3.125 8.92743 3.18493 9.07583 3.30479 9.19542C3.42451 9.31514 3.57292 9.375 3.75 9.375ZM1.50646 15.8333C1.08549 15.8333 0.729167 15.6875 0.4375 15.3958C0.145833 15.1042 0 14.7478 0 14.3269V1.50646C0 1.08549 0.145833 0.729167 0.4375 0.4375C0.729167 0.145833 1.08549 0 1.50646 0H7.50167C7.70486 0 7.89854 0.0390277 8.08271 0.117083C8.26687 0.195 8.42736 0.302361 8.56417 0.439167L12.0608 3.93583C12.1976 4.07264 12.305 4.23313 12.3829 4.41729C12.461 4.60146 12.5 4.79514 12.5 4.99833V14.3269C12.5 14.7478 12.3542 15.1042 12.0625 15.3958C11.7708 15.6875 11.4145 15.8333 10.9935 15.8333H1.50646ZM7.5 4.25C7.5 4.4625 7.57187 4.64063 7.71562 4.78438C7.85938 4.92813 8.0375 5 8.25 5H11.25L7.5 1.25V4.25Z" fill="#A7A8AC"/>
</svg>