<svg width="11" height="16" viewBox="0 0 11 16" fill="none" xmlns="http://www.w3.org/2000/svg">
<path d="M3.90333 12.7565C3.48708 12.7565 3.13174 12.609 2.83729 12.314C2.54299 12.019 2.39583 11.6643 2.39583 11.25V9.91979C1.64153 9.41563 1.05368 8.7666 0.632292 7.97271C0.210764 7.17896 0 6.32958 0 5.42458C0 3.91722 0.525417 2.63625 1.57625 1.58167C2.62694 0.527222 3.9066 0 5.41521 0C6.92368 0 8.20382 0.525555 9.25562 1.57667C10.3074 2.62778 10.8333 3.90778 10.8333 5.41667C10.8333 6.32694 10.6226 7.17681 10.201 7.96625C9.77965 8.75583 9.1918 9.40701 8.4375 9.91979V11.25C8.4375 11.6643 8.29 12.019 7.995 12.314C7.7 12.609 7.34535 12.7565 6.93104 12.7565H3.90333ZM3.82208 15.8333C3.645 15.8333 3.4966 15.7734 3.37687 15.6535C3.25701 15.5337 3.19708 15.3852 3.19708 15.2081C3.19708 15.0309 3.25701 14.8825 3.37687 14.7629C3.4966 14.6432 3.645 14.5833 3.82208 14.5833H7.01125C7.18833 14.5833 7.33674 14.6433 7.45646 14.7631C7.57632 14.883 7.63625 15.0315 7.63625 15.2085C7.63625 15.3858 7.57632 15.5342 7.45646 15.6537C7.33674 15.7735 7.18833 15.8333 7.01125 15.8333H3.82208Z" fill="#A7A8AC"/>
</svg>