<svg width="16" height="16" viewBox="0 0 16 16" fill="none" xmlns="http://www.w3.org/2000/svg">
<path d="M7.9075 12.596C8.14542 12.596 8.34639 12.514 8.51042 12.3498C8.67445 12.1855 8.75646 11.9843 8.75646 11.7463C8.75646 11.5083 8.67431 11.3074 8.51 11.1433C8.34569 10.9794 8.14458 10.8975 7.90667 10.8975C7.66875 10.8975 7.46778 10.9797 7.30375 11.144C7.13972 11.3083 7.05771 11.5094 7.05771 11.7473C7.05771 11.9852 7.13986 12.1862 7.30417 12.3502C7.46847 12.5141 7.66958 12.596 7.9075 12.596ZM7.91812 15.8333C6.82312 15.8333 5.79389 15.6256 4.83042 15.21C3.86694 14.7944 3.02889 14.2305 2.31625 13.5181C1.60361 12.8058 1.03937 11.9681 0.623542 11.005C0.207847 10.0419 0 9.01299 0 7.91812C0 6.82312 0.207778 5.79389 0.623333 4.83042C1.03889 3.86694 1.60285 3.02889 2.31521 2.31625C3.02757 1.60361 3.86528 1.03937 4.82833 0.623542C5.79139 0.207847 6.82035 0 7.91521 0C9.01021 0 10.0394 0.207777 11.0029 0.623333C11.9664 1.03889 12.8044 1.60285 13.5171 2.31521C14.2297 3.02757 14.794 3.86528 15.2098 4.82833C15.6255 5.79139 15.8333 6.82035 15.8333 7.91521C15.8333 9.01021 15.6256 10.0394 15.21 11.0029C14.7944 11.9664 14.2305 12.8044 13.5181 13.5171C12.8058 14.2297 11.9681 14.794 11.005 15.2098C10.0419 15.6255 9.01299 15.8333 7.91812 15.8333ZM7.98417 4.34938C8.36861 4.34938 8.70132 4.47042 8.98229 4.7125C9.2634 4.95458 9.40396 5.25715 9.40396 5.62021C9.40396 5.92576 9.31417 6.19924 9.13458 6.44063C8.95514 6.68215 8.75 6.90708 8.51917 7.11542C8.21667 7.38375 7.95035 7.67896 7.72021 8.00104C7.49007 8.32299 7.36701 8.6816 7.35104 9.07687C7.34562 9.22868 7.39903 9.35583 7.51125 9.45833C7.62347 9.56083 7.75431 9.61208 7.90375 9.61208C8.06403 9.61208 8.19972 9.55868 8.31083 9.45187C8.42194 9.34507 8.49299 9.21424 8.52396 9.05937C8.57951 8.77299 8.69785 8.51792 8.87896 8.29417C9.06007 8.07028 9.25625 7.85743 9.4675 7.65563C9.77125 7.35951 10.0363 7.03674 10.2627 6.68729C10.4892 6.33771 10.6025 5.94785 10.6025 5.51771C10.6025 4.85743 10.3424 4.31493 9.82208 3.89021C9.30181 3.46562 8.69444 3.25333 8 3.25333C7.50431 3.25333 7.03687 3.36306 6.59771 3.5825C6.15868 3.80208 5.81681 4.12236 5.57208 4.54333C5.49625 4.67264 5.47194 4.80868 5.49917 4.95146C5.52625 5.09437 5.59951 5.20285 5.71896 5.27687C5.87104 5.36146 6.02722 5.38563 6.1875 5.34938C6.34778 5.31299 6.48396 5.22167 6.59604 5.07542C6.76493 4.85639 6.96931 4.68062 7.20917 4.54812C7.44903 4.41562 7.70736 4.34938 7.98417 4.34938Z" fill="#A7A8AC"/>
</svg>