<svg width="15" height="15" viewBox="0 0 15 15" fill="none" xmlns="http://www.w3.org/2000/svg">
<path d="M1.50646 14.1667C1.08549 14.1667 0.729167 14.0208 0.4375 13.7292C0.145833 13.4375 0 13.0812 0 12.6602V1.50646C0 1.08549 0.145833 0.729167 0.4375 0.4375C0.729167 0.145833 1.08549 0 1.50646 0H12.6602C13.0812 0 13.4375 0.145833 13.7292 0.4375C14.0208 0.729167 14.1667 1.08549 14.1667 1.50646V12.6602C14.1667 13.0812 14.0208 13.4375 13.7292 13.7292C13.4375 14.0208 13.0812 14.1667 12.6602 14.1667H1.50646ZM12.9167 3.4775L7.98729 9L5.20667 6.21958C5.05611 6.06889 4.88042 5.99354 4.67958 5.99354C4.47861 5.99354 4.30285 6.06889 4.15229 6.21958L1.25 9.12188V10.9038L4.67958 7.47438L7.4775 10.2725C7.6282 10.4231 7.81174 10.4962 8.02813 10.4919C8.24438 10.4877 8.42354 10.4033 8.56563 10.2388L12.9167 5.3525V3.4775Z" fill="#A7A8AC"/>
</svg>