<svg width="17" height="13" viewBox="0 0 17 13" fill="none" xmlns="http://www.w3.org/2000/svg">
<path d="M0 10.3269C0 9.89743 0.110833 9.51417 0.3325 9.17708C0.554167 8.84 0.850208 8.57778 1.22063 8.39042C2.01257 8.00305 2.80889 7.70438 3.60958 7.49438C4.41042 7.28451 5.29049 7.17958 6.24979 7.17958C7.20924 7.17958 8.08931 7.28451 8.89 7.49438C9.69083 7.70438 10.4872 8.00305 11.2792 8.39042C11.6496 8.57778 11.9456 8.84 12.1673 9.17708C12.389 9.51417 12.4998 9.89743 12.4998 10.3269V10.9135C12.4998 11.249 12.3767 11.5438 12.1304 11.7981C11.8842 12.0524 11.5853 12.1796 11.2338 12.1796H1.26583C0.914445 12.1796 0.615625 12.0565 0.369375 11.8102C0.123125 11.5638 0 11.2649 0 10.9135V10.3269ZM13.8444 12.1796C13.9491 11.9883 14.029 11.7848 14.084 11.569C14.139 11.3531 14.1665 11.1347 14.1665 10.9135V10.2244C14.1665 9.67743 14.0326 9.15611 13.7648 8.66042C13.4969 8.16486 13.1169 7.73965 12.6248 7.38479C13.1835 7.46813 13.714 7.59708 14.2163 7.77167C14.7183 7.94639 15.1975 8.15285 15.6538 8.39104C16.0843 8.62076 16.4168 8.89153 16.6513 9.20333C16.8857 9.515 17.0029 9.85535 17.0029 10.2244V10.9135C17.0029 11.2649 16.8798 11.5638 16.6335 11.8102C16.3873 12.0565 16.0885 12.1796 15.7371 12.1796H13.8444ZM6.24979 5.83333C5.44771 5.83333 4.76111 5.54778 4.19 4.97667C3.61889 4.40542 3.33333 3.71875 3.33333 2.91667C3.33333 2.11458 3.61889 1.42799 4.19 0.856875C4.76111 0.285625 5.44771 0 6.24979 0C7.05188 0 7.73854 0.285625 8.30979 0.856875C8.8809 1.42799 9.16646 2.11458 9.16646 2.91667C9.16646 3.71875 8.8809 4.40542 8.30979 4.97667C7.73854 5.54778 7.05188 5.83333 6.24979 5.83333ZM13.4452 2.91667C13.4452 3.71875 13.1597 4.40542 12.5885 4.97667C12.0174 5.54778 11.3308 5.83333 10.5288 5.83333C10.4347 5.83333 10.3151 5.82264 10.1698 5.80125C10.0244 5.77986 9.90472 5.75639 9.81083 5.73083C10.1394 5.33569 10.392 4.89736 10.5685 4.41583C10.7449 3.93431 10.8331 3.43431 10.8331 2.91583C10.8331 2.39722 10.7431 1.8991 10.5631 1.42146C10.3831 0.943958 10.1324 0.504375 9.81083 0.102708C9.93042 0.0599304 10.0501 0.0321526 10.1698 0.0193748C10.2894 0.00645818 10.409 0 10.5288 0C11.3308 0 12.0174 0.285625 12.5885 0.856875C13.1597 1.42799 13.4452 2.11458 13.4452 2.91667Z" fill="white"/>
</svg>