<svg width="16" height="16" viewBox="0 0 16 16" fill="none" xmlns="http://www.w3.org/2000/svg">
<path d="M2.93583 12.3269C3.64417 11.8013 4.41583 11.3863 5.25083 11.0817C6.08569 10.7772 6.97431 10.625 7.91667 10.625C8.85903 10.625 9.74764 10.7772 10.5825 11.0817C11.4175 11.3863 12.1892 11.8013 12.8975 12.3269C13.4156 11.7574 13.826 11.0983 14.129 10.3494C14.4319 9.60049 14.5833 8.78958 14.5833 7.91667C14.5833 6.06944 13.934 4.49653 12.6354 3.19792C11.3368 1.89931 9.76389 1.25 7.91667 1.25C6.06944 1.25 4.49653 1.89931 3.19792 3.19792C1.89931 4.49653 1.25 6.06944 1.25 7.91667C1.25 8.78958 1.40146 9.60049 1.70437 10.3494C2.00729 11.0983 2.41778 11.7574 2.93583 12.3269ZM5.99208 7.75792C5.46958 7.23556 5.20833 6.59403 5.20833 5.83333C5.20833 5.07264 5.46958 4.43111 5.99208 3.90875C6.51444 3.38625 7.15597 3.125 7.91667 3.125C8.67736 3.125 9.31889 3.38625 9.84125 3.90875C10.3638 4.43111 10.625 5.07264 10.625 5.83333C10.625 6.59403 10.3638 7.23556 9.84125 7.75792C9.31889 8.28042 8.67736 8.54167 7.91667 8.54167C7.15597 8.54167 6.51444 8.28042 5.99208 7.75792ZM7.91667 15.8333C6.81736 15.8333 5.78611 15.6266 4.82292 15.2131C3.85972 14.7997 3.02188 14.2366 2.30938 13.524C1.59674 12.8115 1.03368 11.9736 0.620208 11.0104C0.206736 10.0472 0 9.01597 0 7.91667C0 6.81736 0.206736 5.78611 0.620208 4.82292C1.03368 3.85972 1.59674 3.02187 2.30938 2.30937C3.02188 1.59674 3.85972 1.03368 4.82292 0.620209C5.78611 0.206736 6.81736 0 7.91667 0C9.01597 0 10.0472 0.206736 11.0104 0.620209C11.9736 1.03368 12.8115 1.59674 13.524 2.30937C14.2366 3.02187 14.7997 3.85972 15.2131 4.82292C15.6266 5.78611 15.8333 6.81736 15.8333 7.91667C15.8333 9.01597 15.6266 10.0472 15.2131 11.0104C14.7997 11.9736 14.2366 12.8115 13.524 13.524C12.8115 14.2366 11.9736 14.7997 11.0104 15.2131C10.0472 15.6266 9.01597 15.8333 7.91667 15.8333Z" fill="#A7A8AC"/>
</svg>
