<!-- icon-search.svg -->
<svg width="15" height="15" viewBox="0 0 15 15" fill="none" xmlns="http://www.w3.org/2000/svg">
  <path d="M5.09604 10.1921C3.67299 10.1921 2.46785 9.69854 1.48062 8.71146C0.493541 7.72424 0 6.5191 0 5.09604C0 3.67299 0.493541 2.46785 1.48062 1.48063C2.46785 0.493542 3.67299 0 5.09604 0C6.5191 0 7.72424 0.493542 8.71146 1.48063C9.69854 2.46785 10.1921 3.67299 10.1921 5.09604C10.1921 5.69118 10.0922 6.25958 9.8925 6.80125C9.69264 7.34292 9.42604 7.81403 9.09271 8.21458L13.8877 13.0096C14.0031 13.1249 14.0622 13.2699 14.0648 13.4446C14.0674 13.6193 14.0084 13.767 13.8877 13.8877C13.767 14.0084 13.6206 14.0687 13.4485 14.0687C13.2766 14.0687 13.1303 14.0084 13.0096 13.8877L8.21458 9.09271C7.79792 9.43674 7.31875 9.70597 6.77708 9.90042C6.23542 10.0949 5.67507 10.1921 5.09604 10.1921ZM5.09604 8.94229C6.16979 8.94229 7.07924 8.56965 7.82437 7.82437C8.56965 7.07924 8.94229 6.16979 8.94229 5.09604C8.94229 4.02229 8.56965 3.11285 7.82437 2.36771C7.07924 1.62243 6.16979 1.24979 5.09604 1.24979C4.02229 1.24979 3.11285 1.62243 2.36771 2.36771C1.62243 3.11285 1.24979 4.02229 1.24979 5.09604C1.24979 6.16979 1.62243 7.07924 2.36771 7.82437C3.11285 8.56965 4.02229 8.94229 5.09604 8.94229Z" fill="white"/>
</svg>