<svg width="299" height="240" viewBox="0 0 299 240" fill="none" xmlns="http://www.w3.org/2000/svg">
<g clip-path="url(#clip0_1447_5578)">
<rect width="298.667" height="240" rx="16" fill="url(#paint0_radial_1447_5578)"/>
<g filter="url(#filter0_f_1447_5578)">
<path d="M-40 149.1C-27.4749 162.193 1.26466 186.929 16.0216 181.135C34.4677 173.893 40.6164 151.102 57.0129 151.102C66.9817 151.102 78.371 163.244 83.2641 169.073C84.938 171.067 86.708 172.978 88.8467 174.463C92.6932 177.132 99.3717 181.135 104.836 181.135C111.967 181.135 117.445 176.772 120.116 174.118C121.387 172.857 122.588 171.525 123.755 170.167C126.723 166.712 131.346 160.114 134.897 151.102C140.419 137.087 156.759 58 181.353 58C205.948 58 223.337 129.078 231.226 149.1C239.115 169.122 246.256 181.135 261.287 181.135C276.317 181.135 285.959 153.209 289.981 141.091C292.5 133.5 307.344 108.5 340 133.5" stroke="url(#paint1_radial_1447_5578)" stroke-width="103"/>
</g>
<g filter="url(#filter1_f_1447_5578)">
<path d="M-40 149.1C-27.4749 162.193 1.26466 186.929 16.0216 181.135C34.4677 173.893 40.6164 151.102 57.0129 151.102C66.9817 151.102 78.371 163.244 83.2641 169.073C84.938 171.067 86.708 172.978 88.8467 174.463C92.6932 177.132 99.3717 181.135 104.836 181.135C111.967 181.135 117.445 176.772 120.116 174.118C121.387 172.857 122.588 171.525 123.755 170.167C126.723 166.712 131.346 160.114 134.897 151.102C140.419 137.087 156.759 58 181.353 58C205.948 58 223.337 129.078 231.226 149.1C239.115 169.122 246.256 181.135 261.287 181.135C276.317 181.135 285.959 153.209 289.981 141.091C292.5 133.5 307.344 108.5 340 133.5" stroke="url(#paint2_radial_1447_5578)" stroke-width="59"/>
<path d="M-40 149.1C-27.4749 162.193 1.26466 186.929 16.0216 181.135C34.4677 173.893 40.6164 151.102 57.0129 151.102C66.9817 151.102 78.371 163.244 83.2641 169.073C84.938 171.067 86.708 172.978 88.8467 174.463C92.6932 177.132 99.3717 181.135 104.836 181.135C111.967 181.135 117.445 176.772 120.116 174.118C121.387 172.857 122.588 171.525 123.755 170.167C126.723 166.712 131.346 160.114 134.897 151.102C140.419 137.087 156.759 58 181.353 58C205.948 58 223.337 129.078 231.226 149.1C239.115 169.122 246.256 181.135 261.287 181.135C276.317 181.135 285.959 153.209 289.981 141.091C292.5 133.5 307.344 108.5 340 133.5" stroke="white" stroke-opacity="0.12" stroke-width="59"/>
</g>
<g filter="url(#filter2_f_1447_5578)">
<path d="M-40 149.1C-27.4749 162.193 1.26466 186.929 16.0216 181.135C34.4677 173.893 40.6164 151.102 57.0129 151.102C66.9817 151.102 78.371 163.244 83.2641 169.073C84.938 171.067 86.708 172.978 88.8467 174.463C92.6932 177.132 99.3717 181.135 104.836 181.135C111.967 181.135 117.445 176.772 120.116 174.118C121.387 172.857 122.588 171.525 123.755 170.167C126.723 166.712 131.346 160.114 134.897 151.102C140.419 137.087 156.759 58 181.353 58C205.948 58 223.337 129.078 231.226 149.1C239.115 169.122 246.256 181.135 261.287 181.135C276.317 181.135 285.959 153.209 289.981 141.091C292.5 133.5 307.344 108.5 340 133.5" stroke="url(#paint3_radial_1447_5578)" stroke-width="34"/>
<path d="M-40 149.1C-27.4749 162.193 1.26466 186.929 16.0216 181.135C34.4677 173.893 40.6164 151.102 57.0129 151.102C66.9817 151.102 78.371 163.244 83.2641 169.073C84.938 171.067 86.708 172.978 88.8467 174.463C92.6932 177.132 99.3717 181.135 104.836 181.135C111.967 181.135 117.445 176.772 120.116 174.118C121.387 172.857 122.588 171.525 123.755 170.167C126.723 166.712 131.346 160.114 134.897 151.102C140.419 137.087 156.759 58 181.353 58C205.948 58 223.337 129.078 231.226 149.1C239.115 169.122 246.256 181.135 261.287 181.135C276.317 181.135 285.959 153.209 289.981 141.091C292.5 133.5 307.344 108.5 340 133.5" stroke="white" stroke-opacity="0.24" stroke-width="34"/>
</g>
<path d="M16.0216 181.135C10.8977 183.147 4.44667 180.611 -2.44096 176.195C-21.307 164.101 -40 173.111 -40 195.52V220.5C-40 238.173 -25.6731 252.5 -8 252.5H308C325.673 252.5 340 238.173 340 220.5V149.303C340 139.342 335.655 129.24 326.468 125.389C303.162 115.619 292.121 134.641 289.981 141.091C285.959 153.209 276.317 181.135 261.287 181.135C246.257 181.135 239.115 169.122 231.226 149.1C223.338 129.078 205.948 58 181.353 58C156.759 58 140.419 137.087 134.897 151.102C131.346 160.114 126.723 166.712 123.755 170.167C122.588 171.525 121.387 172.856 120.116 174.118C117.445 176.772 111.967 181.135 104.836 181.135C99.3717 181.135 92.6932 177.132 88.8467 174.463C86.708 172.978 84.938 171.067 83.2641 169.073C78.371 163.244 66.9817 151.102 57.0129 151.102C40.6164 151.102 34.4677 173.893 16.0216 181.135Z" fill="url(#paint4_radial_1447_5578)"/>
<path d="M-40 149.1C-27.4749 162.193 1.26466 186.929 16.0216 181.135C34.4677 173.893 40.6164 151.102 57.0129 151.102C66.9817 151.102 78.371 163.244 83.2641 169.073C84.938 171.067 86.708 172.978 88.8467 174.463C92.6932 177.132 99.3717 181.135 104.836 181.135C111.967 181.135 117.445 176.772 120.116 174.118C121.387 172.857 122.588 171.525 123.755 170.167C126.723 166.712 131.346 160.114 134.897 151.102C140.419 137.087 156.759 58 181.353 58C205.948 58 223.337 129.078 231.226 149.1C239.115 169.122 246.256 181.135 261.287 181.135C276.317 181.135 285.959 153.209 289.981 141.091C292.5 133.5 307.344 108.5 340 133.5" stroke="white" stroke-width="6"/>
<circle opacity="0.4" cx="182" cy="59" r="12" fill="white"/>
<circle cx="182" cy="59" r="8" fill="white"/>
</g>
<defs>
<filter id="filter0_f_1447_5578" x="-137.211" y="-53.5" width="568.516" height="347.005" filterUnits="userSpaceOnUse" color-interpolation-filters="sRGB">
<feFlood flood-opacity="0" result="BackgroundImageFix"/>
<feBlend mode="normal" in="SourceGraphic" in2="BackgroundImageFix" result="shape"/>
<feGaussianBlur stdDeviation="30" result="effect1_foregroundBlur_1447_5578"/>
</filter>
<filter id="filter1_f_1447_5578" x="-91.3203" y="-1.5" width="479.25" height="243.003" filterUnits="userSpaceOnUse" color-interpolation-filters="sRGB">
<feFlood flood-opacity="0" result="BackgroundImageFix"/>
<feBlend mode="normal" in="SourceGraphic" in2="BackgroundImageFix" result="shape"/>
<feGaussianBlur stdDeviation="15" result="effect1_foregroundBlur_1447_5578"/>
</filter>
<filter id="filter2_f_1447_5578" x="-64.2812" y="29" width="426.617" height="182.002" filterUnits="userSpaceOnUse" color-interpolation-filters="sRGB">
<feFlood flood-opacity="0" result="BackgroundImageFix"/>
<feBlend mode="normal" in="SourceGraphic" in2="BackgroundImageFix" result="shape"/>
<feGaussianBlur stdDeviation="6" result="effect1_foregroundBlur_1447_5578"/>
</filter>
<radialGradient id="paint0_radial_1447_5578" cx="0" cy="0" r="1" gradientUnits="userSpaceOnUse" gradientTransform="rotate(38.7532) scale(383.407 477.129)">
<stop stop-color="#19202D"/>
<stop offset="1" stop-color="#0A0F18"/>
</radialGradient>
<radialGradient id="paint1_radial_1447_5578" cx="0" cy="0" r="1" gradientTransform="matrix(380 124 -380 9055.07 -40 59.4088)" gradientUnits="userSpaceOnUse">
<stop stop-color="#FF7549"/>
<stop offset="1" stop-color="#FF5620"/>
</radialGradient>
<radialGradient id="paint2_radial_1447_5578" cx="0" cy="0" r="1" gradientTransform="matrix(380 124 -380 9055.07 -40 59.4088)" gradientUnits="userSpaceOnUse">
<stop stop-color="#FF7549"/>
<stop offset="1" stop-color="#FF5620"/>
</radialGradient>
<radialGradient id="paint3_radial_1447_5578" cx="0" cy="0" r="1" gradientTransform="matrix(380 124 -380 9055.07 -40 59.4088)" gradientUnits="userSpaceOnUse">
<stop stop-color="#FF7549"/>
<stop offset="1" stop-color="#FF5620"/>
</radialGradient>
<radialGradient id="paint4_radial_1447_5578" cx="0" cy="0" r="1" gradientTransform="matrix(380 194.5 -380 14203.3 -40 60.2098)" gradientUnits="userSpaceOnUse">
<stop stop-color="#FF7549"/>
<stop offset="1" stop-color="#FF5620"/>
</radialGradient>
<clipPath id="clip0_1447_5578">
<rect width="298.667" height="240" rx="16" fill="white"/>
</clipPath>
</defs>
</svg>
