<svg width="299" height="240" viewBox="0 0 299 240" fill="none" xmlns="http://www.w3.org/2000/svg">
<g clip-path="url(#clip0_1447_5590)">
<rect width="298.667" height="240" rx="16" fill="url(#paint0_radial_1447_5590)"/>
<g filter="url(#filter0_f_1447_5590)">
<path d="M200.336 30C209.172 30 216.336 37.1634 216.336 46V194C216.336 202.837 209.173 210 200.336 210H97.3359C88.4994 210 81.3359 202.837 81.3359 194V46C81.3359 37.1634 88.4994 30 97.3359 30H200.336ZM57.3359 53C66.1725 53 73.3359 60.1634 73.3359 69V172C73.3359 180.837 66.1725 188 57.3359 188H-12.6641C-21.5006 188 -28.6641 180.837 -28.6641 172V69C-28.6641 60.1634 -21.5006 53 -12.6641 53H57.3359ZM310.336 53C319.172 53 326.336 60.1634 326.336 69V172C326.336 180.837 319.172 188 310.336 188H240.336C231.499 188 224.336 180.837 224.336 172V69C224.336 60.1634 231.499 53 240.336 53H310.336Z" fill="url(#paint1_radial_1447_5590)"/>
</g>
<g filter="url(#filter1_f_1447_5590)">
<path d="M200.336 30C209.172 30 216.336 37.1634 216.336 46V194C216.336 202.837 209.173 210 200.336 210H97.3359C88.4994 210 81.3359 202.837 81.3359 194V46C81.3359 37.1634 88.4994 30 97.3359 30H200.336ZM57.3359 53C66.1725 53 73.3359 60.1634 73.3359 69V172C73.3359 180.837 66.1725 188 57.3359 188H-12.6641C-21.5006 188 -28.6641 180.837 -28.6641 172V69C-28.6641 60.1634 -21.5006 53 -12.6641 53H57.3359ZM310.336 53C319.172 53 326.336 60.1634 326.336 69V172C326.336 180.837 319.172 188 310.336 188H240.336C231.499 188 224.336 180.837 224.336 172V69C224.336 60.1634 231.499 53 240.336 53H310.336Z" fill="url(#paint2_radial_1447_5590)"/>
<path d="M200.336 30C209.172 30 216.336 37.1634 216.336 46V194C216.336 202.837 209.173 210 200.336 210H97.3359C88.4994 210 81.3359 202.837 81.3359 194V46C81.3359 37.1634 88.4994 30 97.3359 30H200.336ZM57.3359 53C66.1725 53 73.3359 60.1634 73.3359 69V172C73.3359 180.837 66.1725 188 57.3359 188H-12.6641C-21.5006 188 -28.6641 180.837 -28.6641 172V69C-28.6641 60.1634 -21.5006 53 -12.6641 53H57.3359ZM310.336 53C319.172 53 326.336 60.1634 326.336 69V172C326.336 180.837 319.172 188 310.336 188H240.336C231.499 188 224.336 180.837 224.336 172V69C224.336 60.1634 231.499 53 240.336 53H310.336Z" fill="white" fill-opacity="0.12"/>
</g>
<g opacity="0.8" filter="url(#filter2_f_1447_5590)" style="mix-blend-mode:plus-lighter">
<path d="M200.336 30C209.172 30 216.336 37.1634 216.336 46V194C216.336 202.837 209.173 210 200.336 210H97.3359C88.4994 210 81.3359 202.837 81.3359 194V46C81.3359 37.1634 88.4994 30 97.3359 30H200.336ZM57.3359 53C66.1725 53 73.3359 60.1634 73.3359 69V172C73.3359 180.837 66.1725 188 57.3359 188H-12.6641C-21.5006 188 -28.6641 180.837 -28.6641 172V69C-28.6641 60.1634 -21.5006 53 -12.6641 53H57.3359ZM310.336 53C319.172 53 326.336 60.1634 326.336 69V172C326.336 180.837 319.172 188 310.336 188H240.336C231.499 188 224.336 180.837 224.336 172V69C224.336 60.1634 231.499 53 240.336 53H310.336Z" fill="url(#paint3_radial_1447_5590)"/>
<path d="M200.336 30C209.172 30 216.336 37.1634 216.336 46V194C216.336 202.837 209.173 210 200.336 210H97.3359C88.4994 210 81.3359 202.837 81.3359 194V46C81.3359 37.1634 88.4994 30 97.3359 30H200.336ZM57.3359 53C66.1725 53 73.3359 60.1634 73.3359 69V172C73.3359 180.837 66.1725 188 57.3359 188H-12.6641C-21.5006 188 -28.6641 180.837 -28.6641 172V69C-28.6641 60.1634 -21.5006 53 -12.6641 53H57.3359ZM310.336 53C319.172 53 326.336 60.1634 326.336 69V172C326.336 180.837 319.172 188 310.336 188H240.336C231.499 188 224.336 180.837 224.336 172V69C224.336 60.1634 231.499 53 240.336 53H310.336Z" fill="white" fill-opacity="0.24"/>
</g>
<path d="M200.336 30C209.172 30 216.336 37.1634 216.336 46V194C216.336 202.837 209.173 210 200.336 210H97.3359C88.4994 210 81.3359 202.837 81.3359 194V46C81.3359 37.1634 88.4994 30 97.3359 30H200.336ZM57.3359 53C66.1725 53 73.3359 60.1634 73.3359 69V172C73.3359 180.837 66.1725 188 57.3359 188H-12.6641C-21.5006 188 -28.6641 180.837 -28.6641 172V69C-28.6641 60.1634 -21.5006 53 -12.6641 53H57.3359ZM310.336 53C319.172 53 326.336 60.1634 326.336 69V172C326.336 180.837 319.172 188 310.336 188H240.336C231.499 188 224.336 180.837 224.336 172V69C224.336 60.1634 231.499 53 240.336 53H310.336Z" fill="url(#paint4_radial_1447_5590)"/>
<path d="M130.473 194.064C130.105 194.064 129.758 194.011 129.433 193.904C129.108 193.797 128.833 193.624 128.609 193.384C128.385 193.144 128.236 192.827 128.161 192.432H129.033C129.102 192.656 129.214 192.832 129.369 192.96C129.524 193.083 129.702 193.168 129.905 193.216C130.113 193.264 130.321 193.288 130.529 193.288C130.726 193.288 130.91 193.261 131.081 193.208C131.257 193.155 131.401 193.067 131.513 192.944C131.625 192.821 131.681 192.661 131.681 192.464C131.681 192.315 131.652 192.192 131.593 192.096C131.534 192 131.452 191.923 131.345 191.864C131.244 191.8 131.121 191.749 130.977 191.712C130.812 191.659 130.633 191.613 130.441 191.576C130.254 191.539 130.068 191.496 129.881 191.448C129.7 191.4 129.529 191.339 129.369 191.264C129.236 191.211 129.105 191.147 128.977 191.072C128.854 190.992 128.748 190.899 128.657 190.792C128.566 190.68 128.492 190.549 128.433 190.4C128.38 190.251 128.353 190.08 128.353 189.888C128.353 189.632 128.393 189.413 128.473 189.232C128.558 189.051 128.668 188.899 128.801 188.776C128.94 188.653 129.097 188.557 129.273 188.488C129.454 188.413 129.644 188.36 129.841 188.328C130.038 188.296 130.23 188.28 130.417 188.28C130.758 188.28 131.073 188.333 131.361 188.44C131.649 188.547 131.886 188.717 132.073 188.952C132.265 189.181 132.369 189.485 132.385 189.864H131.561C131.54 189.661 131.47 189.501 131.353 189.384C131.241 189.261 131.1 189.176 130.929 189.128C130.758 189.075 130.577 189.048 130.385 189.048C130.246 189.048 130.108 189.061 129.969 189.088C129.83 189.109 129.702 189.152 129.585 189.216C129.473 189.275 129.382 189.355 129.313 189.456C129.249 189.557 129.217 189.683 129.217 189.832C129.217 189.96 129.244 190.075 129.297 190.176C129.35 190.272 129.425 190.355 129.521 190.424C129.622 190.488 129.734 190.544 129.857 190.592C130.081 190.677 130.326 190.744 130.593 190.792C130.86 190.835 131.11 190.896 131.345 190.976C131.516 191.029 131.676 191.096 131.825 191.176C131.974 191.251 132.102 191.344 132.209 191.456C132.316 191.563 132.398 191.691 132.457 191.84C132.516 191.984 132.545 192.152 132.545 192.344C132.545 192.659 132.489 192.928 132.377 193.152C132.265 193.371 132.113 193.547 131.921 193.68C131.729 193.813 131.508 193.912 131.257 193.976C131.006 194.035 130.745 194.064 130.473 194.064ZM133.323 194V188.344H134.171V194H133.323ZM135.183 194V188.344H136.391L138.031 191.328L139.639 188.344H140.815V194H139.975V189.344L138.191 192.592H137.823L136.031 189.344V194H135.183ZM141.824 194V188.344H142.672V194H141.824ZM143.683 194V188.344H144.531V193.224H147.555V194H143.683ZM147.56 194L149.696 188.344H150.792L152.92 194H152.008L151.592 192.864H148.888L148.472 194H147.56ZM149.168 192.104H151.312L150.24 189.152L149.168 192.104ZM153.317 194V188.344H155.493C155.797 188.344 156.074 188.376 156.325 188.44C156.575 188.499 156.794 188.597 156.981 188.736C157.167 188.869 157.311 189.051 157.413 189.28C157.514 189.509 157.565 189.792 157.565 190.128C157.565 190.432 157.511 190.693 157.405 190.912C157.298 191.131 157.151 191.312 156.965 191.456C156.778 191.6 156.567 191.709 156.333 191.784L157.541 194H156.605L155.485 191.92H154.165V194H153.317ZM154.165 191.16H155.317C155.509 191.16 155.687 191.147 155.853 191.12C156.023 191.088 156.173 191.035 156.301 190.96C156.429 190.88 156.527 190.773 156.597 190.64C156.671 190.501 156.709 190.325 156.709 190.112C156.714 189.867 156.666 189.672 156.565 189.528C156.469 189.379 156.325 189.275 156.133 189.216C155.941 189.152 155.709 189.12 155.437 189.12H154.165V191.16ZM158.341 194V188.344H159.189V194H158.341ZM161.424 194V189.12H159.632V188.344H164.056V189.12H162.272V194H161.424ZM165.969 194V191.88L163.929 188.344H164.913L166.401 191.056L167.881 188.344H168.841L166.809 191.872V194H165.969Z" fill="url(#paint5_radial_1447_5590)"/>
<path d="M123.344 132.288C122.024 132.288 120.788 132.072 119.636 131.64C118.484 131.208 117.488 130.548 116.648 129.66C115.832 128.748 115.28 127.62 114.992 126.276H118.952C119.336 127.14 119.972 127.788 120.86 128.22C121.772 128.628 122.696 128.832 123.632 128.832C124.832 128.832 125.828 128.592 126.62 128.112C127.412 127.608 128.036 126.936 128.492 126.096C128.972 125.232 129.308 124.284 129.5 123.252C129.716 122.196 129.824 121.116 129.824 120.012C129.824 119.892 129.824 119.772 129.824 119.652C129.824 119.508 129.824 119.388 129.824 119.292C129.344 120.156 128.72 120.852 127.952 121.38C127.208 121.908 126.392 122.28 125.504 122.496C124.616 122.712 123.728 122.82 122.84 122.82C121.352 122.82 119.984 122.52 118.736 121.92C117.512 121.296 116.54 120.384 115.82 119.184C115.1 117.984 114.74 116.532 114.74 114.828C114.74 113.076 115.124 111.564 115.892 110.292C116.684 108.996 117.764 108 119.132 107.304C120.5 106.608 122.048 106.26 123.776 106.26C125.648 106.26 127.208 106.644 128.456 107.412C129.704 108.18 130.688 109.224 131.408 110.544C132.128 111.84 132.632 113.28 132.92 114.864C133.232 116.424 133.388 117.996 133.388 119.58C133.388 121.356 133.208 123.012 132.848 124.548C132.488 126.084 131.912 127.44 131.12 128.616C130.328 129.768 129.284 130.668 127.988 131.316C126.716 131.964 125.168 132.288 123.344 132.288ZM123.56 119.472C124.544 119.472 125.42 119.268 126.188 118.86C126.98 118.428 127.592 117.864 128.024 117.168C128.48 116.448 128.708 115.644 128.708 114.756C128.708 113.748 128.48 112.872 128.024 112.128C127.592 111.36 126.992 110.772 126.224 110.364C125.48 109.932 124.628 109.716 123.668 109.716C122.66 109.716 121.772 109.932 121.004 110.364C120.26 110.796 119.672 111.384 119.24 112.128C118.808 112.872 118.592 113.688 118.592 114.576C118.592 116.064 119.024 117.252 119.888 118.14C120.776 119.028 122 119.472 123.56 119.472ZM145.02 132.288C143.844 132.288 142.704 132.156 141.6 131.892C140.496 131.628 139.5 131.208 138.612 130.632C137.748 130.032 137.052 129.252 136.524 128.292C135.996 127.332 135.732 126.156 135.732 124.764C135.732 123.804 135.888 122.94 136.2 122.172C136.512 121.38 136.968 120.696 137.568 120.12C138.192 119.544 138.912 119.088 139.728 118.752C138.888 118.296 138.228 117.756 137.748 117.132C137.268 116.484 136.944 115.8 136.776 115.08C136.608 114.36 136.524 113.676 136.524 113.028C136.524 111.804 136.764 110.772 137.244 109.932C137.724 109.068 138.372 108.372 139.188 107.844C140.004 107.292 140.916 106.896 141.924 106.656C142.932 106.392 143.976 106.26 145.056 106.26C146.112 106.26 147.144 106.392 148.152 106.656C149.16 106.896 150.072 107.292 150.888 107.844C151.704 108.396 152.352 109.104 152.832 109.968C153.312 110.832 153.552 111.876 153.552 113.1C153.552 113.724 153.456 114.384 153.264 115.08C153.096 115.776 152.772 116.436 152.292 117.06C151.812 117.684 151.14 118.212 150.276 118.644C151.14 118.98 151.872 119.448 152.472 120.048C153.096 120.648 153.564 121.344 153.876 122.136C154.188 122.928 154.344 123.816 154.344 124.8C154.344 126.168 154.08 127.332 153.552 128.292C153.024 129.252 152.304 130.032 151.392 130.632C150.504 131.208 149.508 131.628 148.404 131.892C147.324 132.156 146.196 132.288 145.02 132.288ZM145.02 128.832C145.596 128.832 146.196 128.772 146.82 128.652C147.444 128.532 148.032 128.328 148.584 128.04C149.136 127.728 149.58 127.308 149.916 126.78C150.276 126.228 150.456 125.544 150.456 124.728C150.456 123.72 150.204 122.928 149.7 122.352C149.196 121.752 148.524 121.32 147.684 121.056C146.868 120.768 145.98 120.624 145.02 120.624C144.084 120.624 143.196 120.768 142.356 121.056C141.54 121.32 140.868 121.752 140.34 122.352C139.836 122.928 139.584 123.72 139.584 124.728C139.584 125.544 139.752 126.228 140.088 126.78C140.448 127.308 140.904 127.728 141.456 128.04C142.032 128.328 142.632 128.532 143.256 128.652C143.88 128.772 144.468 128.832 145.02 128.832ZM145.056 117.456C145.92 117.456 146.688 117.312 147.36 117.024C148.056 116.736 148.62 116.316 149.052 115.764C149.484 115.188 149.7 114.492 149.7 113.676C149.724 112.716 149.52 111.948 149.088 111.372C148.656 110.772 148.08 110.34 147.36 110.076C146.664 109.788 145.884 109.644 145.02 109.644C144.132 109.644 143.328 109.788 142.608 110.076C141.912 110.34 141.36 110.76 140.952 111.336C140.568 111.912 140.376 112.644 140.376 113.532C140.376 114.42 140.592 115.164 141.024 115.764C141.456 116.34 142.02 116.772 142.716 117.06C143.436 117.324 144.216 117.456 145.056 117.456ZM159.818 132L175.802 106.548H179.618L163.706 132H159.818ZM177.278 132.216C176.102 132.216 175.094 131.964 174.254 131.46C173.438 130.956 172.802 130.272 172.346 129.408C171.914 128.52 171.698 127.512 171.698 126.384C171.698 125.208 171.914 124.188 172.346 123.324C172.802 122.46 173.45 121.788 174.29 121.308C175.13 120.804 176.126 120.552 177.278 120.552C178.43 120.552 179.414 120.792 180.23 121.272C181.046 121.752 181.67 122.436 182.102 123.324C182.534 124.188 182.75 125.196 182.75 126.348C182.75 127.476 182.522 128.484 182.066 129.372C181.634 130.26 181.01 130.956 180.194 131.46C179.378 131.964 178.406 132.216 177.278 132.216ZM177.242 129.264C177.842 129.264 178.322 129.132 178.682 128.868C179.042 128.604 179.294 128.244 179.438 127.788C179.606 127.332 179.69 126.864 179.69 126.384C179.69 125.904 179.606 125.448 179.438 125.016C179.294 124.56 179.042 124.2 178.682 123.936C178.322 123.672 177.842 123.54 177.242 123.54C176.33 123.54 175.682 123.84 175.298 124.44C174.914 125.016 174.722 125.664 174.722 126.384C174.722 127.152 174.914 127.824 175.298 128.4C175.706 128.976 176.354 129.264 177.242 129.264ZM162.338 117.924C161.162 117.924 160.154 117.672 159.314 117.168C158.498 116.664 157.874 115.98 157.442 115.116C157.01 114.228 156.794 113.22 156.794 112.092C156.794 110.916 157.01 109.896 157.442 109.032C157.874 108.168 158.51 107.496 159.35 107.016C160.19 106.512 161.198 106.26 162.374 106.26C163.526 106.26 164.51 106.5 165.326 106.98C166.142 107.46 166.766 108.144 167.198 109.032C167.63 109.896 167.846 110.904 167.846 112.056C167.846 113.184 167.63 114.192 167.198 115.08C166.766 115.968 166.13 116.664 165.29 117.168C164.474 117.672 163.49 117.924 162.338 117.924ZM162.338 114.972C162.938 114.972 163.406 114.84 163.742 114.576C164.102 114.288 164.366 113.928 164.534 113.496C164.702 113.04 164.786 112.572 164.786 112.092C164.786 111.588 164.702 111.12 164.534 110.688C164.366 110.256 164.102 109.908 163.742 109.644C163.406 109.356 162.938 109.212 162.338 109.212C161.426 109.212 160.766 109.512 160.358 110.112C159.974 110.688 159.782 111.348 159.782 112.092C159.782 112.86 159.974 113.532 160.358 114.108C160.766 114.684 161.426 114.972 162.338 114.972Z" fill="url(#paint6_radial_1447_5590)"/>
</g>
<defs>
<filter id="filter0_f_1447_5590" x="-129.464" y="-70.8" width="556.6" height="381.6" filterUnits="userSpaceOnUse" color-interpolation-filters="sRGB">
<feFlood flood-opacity="0" result="BackgroundImageFix"/>
<feBlend mode="normal" in="SourceGraphic" in2="BackgroundImageFix" result="shape"/>
<feGaussianBlur stdDeviation="50.4" result="effect1_foregroundBlur_1447_5590"/>
</filter>
<filter id="filter1_f_1447_5590" x="-68.9641" y="-10.3" width="435.6" height="260.6" filterUnits="userSpaceOnUse" color-interpolation-filters="sRGB">
<feFlood flood-opacity="0" result="BackgroundImageFix"/>
<feBlend mode="normal" in="SourceGraphic" in2="BackgroundImageFix" result="shape"/>
<feGaussianBlur stdDeviation="20.15" result="effect1_foregroundBlur_1447_5590"/>
</filter>
<filter id="filter2_f_1447_5590" x="-38.6641" y="20" width="375" height="200" filterUnits="userSpaceOnUse" color-interpolation-filters="sRGB">
<feFlood flood-opacity="0" result="BackgroundImageFix"/>
<feBlend mode="normal" in="SourceGraphic" in2="BackgroundImageFix" result="shape"/>
<feGaussianBlur stdDeviation="5" result="effect1_foregroundBlur_1447_5590"/>
</filter>
<radialGradient id="paint0_radial_1447_5590" cx="0" cy="0" r="1" gradientUnits="userSpaceOnUse" gradientTransform="rotate(38.7532) scale(383.407 477.129)">
<stop stop-color="#19202D"/>
<stop offset="1" stop-color="#0A0F18"/>
</radialGradient>
<radialGradient id="paint1_radial_1447_5590" cx="0" cy="0" r="1" gradientTransform="matrix(355 180 -355 13144.5 -28.664 32.0451)" gradientUnits="userSpaceOnUse">
<stop stop-color="#FF7549"/>
<stop offset="1" stop-color="#FF5620"/>
</radialGradient>
<radialGradient id="paint2_radial_1447_5590" cx="0" cy="0" r="1" gradientTransform="matrix(355 180 -355 13144.5 -28.664 32.0451)" gradientUnits="userSpaceOnUse">
<stop stop-color="#FF7549"/>
<stop offset="1" stop-color="#FF5620"/>
</radialGradient>
<radialGradient id="paint3_radial_1447_5590" cx="0" cy="0" r="1" gradientTransform="matrix(355 180 -355 13144.5 -28.664 32.0451)" gradientUnits="userSpaceOnUse">
<stop stop-color="#FF7549"/>
<stop offset="1" stop-color="#FF5620"/>
</radialGradient>
<radialGradient id="paint4_radial_1447_5590" cx="0" cy="0" r="1" gradientUnits="userSpaceOnUse" gradientTransform="translate(148.836 120) rotate(180) scale(181.5 366.025)">
<stop offset="0.367154" stop-color="white" stop-opacity="0.88"/>
<stop offset="1" stop-color="white" stop-opacity="0.2"/>
</radialGradient>
<radialGradient id="paint5_radial_1447_5590" cx="0" cy="0" r="1" gradientTransform="matrix(42 6 -42 438.149 127.336 188.068)" gradientUnits="userSpaceOnUse">
<stop stop-color="#FF7549"/>
<stop offset="1" stop-color="#FF5620"/>
</radialGradient>
<radialGradient id="paint6_radial_1447_5590" cx="0" cy="0" r="1" gradientTransform="matrix(81 25 -81 1825.62 108.336 107.284)" gradientUnits="userSpaceOnUse">
<stop stop-color="#FF7549"/>
<stop offset="1" stop-color="#FF5620"/>
</radialGradient>
<clipPath id="clip0_1447_5590">
<rect width="298.667" height="240" rx="16" fill="white"/>
</clipPath>
</defs>
</svg>
