<svg width="17" height="17" viewBox="0 0 17 17" fill="none" xmlns="http://www.w3.org/2000/svg">
<path d="M8.5095 7.49975C10.875 7.49975 12.8831 7.13375 14.5337 6.40175C16.1842 5.66975 17.0095 4.78583 17.0095 3.75C17.0095 2.714 16.1842 1.83 14.5337 1.098C12.8831 0.366 10.875 0 8.5095 0C6.14417 0 4.13458 0.366 2.48075 1.098C0.826916 1.83 0 2.714 0 3.75C0 4.78583 0.826916 5.66975 2.48075 6.40175C4.13458 7.13375 6.14417 7.49975 8.5095 7.49975ZM8.5 9.519C9.2475 9.519 10.0873 9.45142 11.0193 9.31625C11.9513 9.18092 12.8394 8.97092 13.6837 8.68625C14.5279 8.40175 15.2612 8.039 15.8835 7.598C16.506 7.157 16.8813 6.63067 17.0095 6.019V8.75C16.8813 9.3615 16.506 9.88775 15.8835 10.3287C15.2612 10.7697 14.5279 11.1326 13.6837 11.4172C12.8394 11.7017 11.9513 11.9117 11.0193 12.047C10.0873 12.1822 9.2475 12.2498 8.5 12.2498C7.7525 12.2498 6.91275 12.1822 5.98075 12.047C5.04875 11.9117 4.16225 11.7017 3.32125 11.4172C2.48025 11.1326 1.7485 10.7697 1.126 10.3287C0.5035 9.88775 0.128167 9.3615 0 8.75V6.019C0.128167 6.63067 0.5035 7.157 1.126 7.598C1.7485 8.039 2.48025 8.40175 3.32125 8.68625C4.16225 8.97092 5.04875 9.18092 5.98075 9.31625C6.91275 9.45142 7.7525 9.519 8.5 9.519ZM8.5 14.269C9.2475 14.269 10.0873 14.2014 11.0193 14.0663C11.9513 13.9309 12.8394 13.7209 13.6837 13.4362C14.5279 13.1517 15.2612 12.789 15.8835 12.348C16.506 11.9068 16.8813 11.3805 17.0095 10.769V13.4902C16.8813 14.1017 16.506 14.628 15.8835 15.069C15.2612 15.51 14.5279 15.8728 13.6837 16.1575C12.8394 16.4422 11.9513 16.6521 11.0193 16.7873C10.0873 16.9226 9.2475 16.9902 8.5 16.9902C7.7525 16.9902 6.91275 16.9226 5.98075 16.7873C5.04875 16.6521 4.16225 16.4422 3.32125 16.1575C2.48025 15.8728 1.7485 15.51 1.126 15.069C0.5035 14.628 0.128167 14.1017 0 13.4902V10.769C0.128167 11.3805 0.5035 11.9068 1.126 12.348C1.7485 12.789 2.48025 13.1517 3.32125 13.4362C4.16225 13.7209 5.04875 13.9309 5.98075 14.0663C6.91275 14.2014 7.7525 14.269 8.5 14.269Z" fill="#FF6230"/>
</svg>
