<svg width="18" height="18" viewBox="0 0 18 18" fill="none" xmlns="http://www.w3.org/2000/svg">
<path d="M1.80775 17.5C1.30258 17.5 0.875 17.325 0.525 16.975C0.175 16.625 0 16.1974 0 15.6923V0.75C0 0.5375 0.0719168 0.359333 0.21575 0.2155C0.359583 0.0718332 0.53775 0 0.75025 0C0.962917 0 1.141 0.0718332 1.2845 0.2155C1.42817 0.359333 1.5 0.5375 1.5 0.75V15.6923C1.5 15.7692 1.53208 15.8398 1.59625 15.9038C1.66025 15.9679 1.73075 16 1.80775 16H16.75C16.9625 16 17.1406 16.0719 17.2843 16.2157C17.4281 16.3596 17.5 16.5378 17.5 16.7502C17.5 16.9629 17.4281 17.141 17.2843 17.2845C17.1406 17.4282 16.9625 17.5 16.75 17.5H1.80775ZM4.30775 14.25C4.06258 14.25 3.85708 14.1671 3.69125 14.0013C3.52525 13.8352 3.44225 13.6297 3.44225 13.3845V6.9615C3.44225 6.71633 3.52525 6.51083 3.69125 6.345C3.85708 6.17917 4.06258 6.09625 4.30775 6.09625H5.5385C5.7945 6.09625 6.00917 6.18308 6.1825 6.35675C6.35567 6.53042 6.44225 6.74567 6.44225 7.0025V13.3475C6.44225 13.6043 6.35567 13.8189 6.1825 13.9913C6.00917 14.1638 5.7945 14.25 5.5385 14.25H4.30775ZM9.05775 14.25C8.81258 14.25 8.60708 14.1671 8.44125 14.0013C8.27525 13.8352 8.19225 13.6297 8.19225 13.3845V2C8.19225 1.74383 8.27892 1.52917 8.45225 1.356C8.62542 1.18283 8.84008 1.09625 9.09625 1.09625H10.327C10.5722 1.09625 10.7777 1.17917 10.9435 1.345C11.1093 1.51083 11.1923 1.71633 11.1923 1.9615V13.346C11.1923 13.6022 11.1057 13.8168 10.9325 13.99C10.7592 14.1633 10.5445 14.25 10.2885 14.25H9.05775ZM13.8077 14.25C13.5626 14.25 13.357 14.1671 13.191 14.0013C13.0252 13.8352 12.9423 13.6297 12.9423 13.3845V11C12.9423 10.7438 13.0289 10.5292 13.2023 10.356C13.3754 10.1828 13.5901 10.0963 13.8462 10.0963H15.0768C15.3221 10.0963 15.5277 10.1792 15.6935 10.345C15.8593 10.5108 15.9423 10.7163 15.9423 10.9615V13.346C15.9423 13.6022 15.8557 13.8168 15.6825 13.99C15.5092 14.1633 15.2945 14.25 15.0385 14.25H13.8077Z" fill="#FF6230"/>
</svg>
