<svg width="25" height="26" viewBox="0 0 25 26" fill="none" xmlns="http://www.w3.org/2000/svg">
<path d="M0.410168 15.1428C0.189723 14.9942 0.0581677 14.7904 0.015501 14.5315C-0.0273879 14.2724 0.0187233 14.0258 0.153834 13.7918L4.0795 7.48915C4.51706 6.78826 5.14095 6.41215 5.95117 6.36082C6.76139 6.30971 7.42983 6.59438 7.9565 7.21482L9.37183 8.85849C9.46583 8.9696 9.58339 9.01871 9.7245 9.00582C9.86539 8.99293 9.97006 8.92671 10.0385 8.80715L12.9872 4.01982C13.4469 3.26093 14.1153 2.87382 14.9922 2.85849C15.8691 2.84293 16.5486 3.20782 17.0308 3.95315L18.5128 6.19182C18.5982 6.31138 18.7157 6.37115 18.8655 6.37115C19.0151 6.37115 19.1283 6.30704 19.2052 6.17882L22.7845 0.476154C22.9334 0.228376 23.1531 0.0762652 23.4435 0.0198208C23.7342 -0.0366237 23.9966 0.027486 24.2308 0.212153C24.4426 0.360819 24.5699 0.560376 24.6128 0.81082C24.6555 1.06126 24.6093 1.3036 24.4742 1.53782L20.8948 7.24049C20.4351 7.9856 19.7667 8.35815 18.8898 8.35815C18.0129 8.35815 17.3334 7.99671 16.8512 7.27382L15.3822 5.06082C15.2966 4.9326 15.1791 4.87071 15.0295 4.87515C14.8799 4.87938 14.7667 4.9456 14.6898 5.07382L11.7408 9.84815C11.3171 10.549 10.6978 10.9306 9.88317 10.9928C9.06872 11.0553 8.39828 10.7763 7.87184 10.1558L6.43583 8.47882C6.34183 8.36771 6.2265 8.3186 6.08984 8.33149C5.95295 8.34415 5.85039 8.41038 5.78217 8.53015L1.8565 14.8662C1.70761 15.1139 1.48795 15.2682 1.1975 15.3288C0.906834 15.3895 0.64439 15.3275 0.410168 15.1428ZM16.7308 21.5712C17.7324 21.5712 18.5789 21.2254 19.2705 20.5338C19.9621 19.8425 20.3078 18.9959 20.3078 17.9942C20.3078 16.9924 19.9621 16.1458 19.2705 15.4545C18.5789 14.7629 17.7324 14.4172 16.7308 14.4172C15.7291 14.4172 14.8824 14.7629 14.1908 15.4545C13.4995 16.1458 13.1538 16.9924 13.1538 17.9942C13.1538 18.9959 13.4995 19.8425 14.1908 20.5338C14.8824 21.2254 15.7291 21.5712 16.7308 21.5712ZM16.7308 23.5712C15.1837 23.5712 13.8675 23.0284 12.7822 21.9428C11.6966 20.8575 11.1538 19.5413 11.1538 17.9942C11.1538 16.4473 11.6966 15.131 12.7822 14.0455C13.8675 12.9602 15.1837 12.4175 16.7308 12.4175C18.2777 12.4175 19.5939 12.9602 20.6795 14.0455C21.7648 15.131 22.3075 16.4473 22.3075 17.9942C22.3075 18.5806 22.2212 19.1438 22.0485 19.6838C21.8761 20.224 21.6257 20.7189 21.2975 21.1685L24.2718 24.1558C24.4563 24.3405 24.5485 24.5704 24.5485 24.8455C24.5485 25.1206 24.4563 25.3505 24.2718 25.5352C24.0872 25.7198 23.8551 25.8122 23.5755 25.8122C23.2962 25.8122 23.0642 25.7198 22.8795 25.5352L19.8922 22.5608C19.4426 22.889 18.9499 23.1395 18.4142 23.3122C17.8782 23.4848 17.3171 23.5712 16.7308 23.5712Z" fill="#3AD867"/>
</svg>
