<svg width="24" height="26" viewBox="0 0 24 26" fill="none" xmlns="http://www.w3.org/2000/svg">
<path d="M10.521 25.3333C10.0664 25.3333 9.67371 25.1824 9.34304 24.8807C9.01215 24.5791 8.81082 24.2078 8.73904 23.7667L8.41337 21.2717C8.05626 21.1521 7.69004 20.9847 7.31471 20.7693C6.9396 20.5538 6.60415 20.323 6.30837 20.077L3.99804 21.059C3.57915 21.2437 3.15826 21.2616 2.73537 21.1127C2.31226 20.964 1.98359 20.694 1.74937 20.3027L0.246706 17.6973C0.0124835 17.306 -0.0549609 16.8919 0.0443724 16.455C0.143484 16.0183 0.370817 15.6581 0.726373 15.3743L2.72371 13.8743C2.69304 13.6761 2.67126 13.477 2.65837 13.277C2.64548 13.077 2.63904 12.8778 2.63904 12.6793C2.63904 12.4898 2.64548 12.2971 2.65837 12.1013C2.67126 11.9056 2.69304 11.6914 2.72371 11.459L0.726373 9.959C0.370817 9.67522 0.145595 9.31278 0.0507058 8.87167C-0.0441831 8.43078 0.0254835 8.01456 0.259706 7.623L1.74937 5.05633C1.98359 4.67344 2.31226 4.40556 2.73537 4.25267C3.15826 4.09956 3.57915 4.11533 3.99804 4.3L6.29537 5.26933C6.61693 5.01467 6.96015 4.78178 7.32504 4.57067C7.68993 4.35956 8.04848 4.18989 8.40071 4.06167L8.73904 1.56667C8.81082 1.12556 9.01215 0.754223 9.34304 0.452667C9.67371 0.150889 10.0664 0 10.521 0H13.475C13.9297 0 14.3224 0.150889 14.653 0.452667C14.9839 0.754223 15.1853 1.12556 15.257 1.56667L15.5827 4.07433C15.9827 4.21967 16.3446 4.38933 16.6684 4.58333C16.9924 4.77733 17.3194 5.006 17.6494 5.26933L20.011 4.3C20.4297 4.11533 20.8506 4.09956 21.2737 4.25267C21.6968 4.40556 22.0254 4.67344 22.2594 5.05633L23.7494 7.636C23.9836 8.02733 24.051 8.44144 23.9517 8.87833C23.8526 9.315 23.6253 9.67522 23.2697 9.959L21.221 11.4973C21.2688 11.7127 21.2949 11.914 21.2994 12.1013C21.3036 12.2884 21.3057 12.4769 21.3057 12.6667C21.3057 12.8478 21.3014 13.032 21.2927 13.2193C21.2843 13.4064 21.2536 13.6206 21.2007 13.8617L23.2107 15.3743C23.5663 15.6581 23.7958 16.0183 23.8994 16.455C24.0027 16.8919 23.9373 17.306 23.703 17.6973L22.1927 20.2897C21.9587 20.6812 21.628 20.9513 21.2007 21.1C20.7734 21.2487 20.3503 21.2307 19.9314 21.046L17.6494 20.064C17.3194 20.3273 16.9826 20.5602 16.639 20.7627C16.2955 20.9653 15.9434 21.1308 15.5827 21.259L15.257 23.7667C15.1853 24.2078 14.9839 24.5791 14.653 24.8807C14.3224 25.1824 13.9297 25.3333 13.475 25.3333H10.521ZM12.0134 16.6667C13.1227 16.6667 14.0667 16.2773 14.8454 15.4987C15.624 14.72 16.0134 13.776 16.0134 12.6667C16.0134 11.5573 15.624 10.6133 14.8454 9.83467C14.0667 9.056 13.1227 8.66667 12.0134 8.66667C10.8903 8.66667 9.94282 9.056 9.17104 9.83467C8.39926 10.6133 8.01337 11.5573 8.01337 12.6667C8.01337 13.776 8.39926 14.72 9.17104 15.4987C9.94282 16.2773 10.8903 16.6667 12.0134 16.6667Z" fill="#FF5620"/>
</svg>
