<svg width="20" height="17" viewBox="0 0 20 17" fill="none" xmlns="http://www.w3.org/2000/svg">
<path d="M16.8287 12.0308C16.9774 11.8821 17.154 11.8077 17.3585 11.8077C17.563 11.8077 17.7396 11.8821 17.8883 12.0308L19.473 13.6307C19.6217 13.7796 19.696 13.9552 19.696 14.1578C19.696 14.3603 19.6217 14.5359 19.473 14.6848C19.3243 14.8334 19.1487 14.9078 18.946 14.9078C18.7435 14.9078 18.5679 14.8334 18.4192 14.6848L16.8193 13.1C16.6704 12.9513 16.5977 12.7732 16.601 12.5655C16.6042 12.3578 16.6801 12.1796 16.8287 12.0308ZM17.675 0.22325C17.8237 0.371916 17.898 0.550083 17.898 0.75775C17.898 0.965417 17.8237 1.14358 17.675 1.29225L16.0903 2.877C15.9416 3.02567 15.765 3.1 15.5605 3.1C15.356 3.1 15.1794 3.02567 15.0307 2.877C14.8821 2.72833 14.8077 2.55017 14.8077 2.3425C14.8077 2.13467 14.8821 1.95642 15.0307 1.80775L16.621 0.22325C16.7698 0.0744165 16.9455 0 17.148 0C17.3505 0 17.5262 0.0744165 17.675 0.22325ZM2.021 0.23275C2.16983 0.0840833 2.34808 0.00975037 2.55575 0.00975037C2.76342 0.00975037 2.94158 0.0840833 3.09025 0.23275L4.675 1.82325C4.82367 1.97192 4.898 2.1475 4.898 2.35C4.898 2.55267 4.82367 2.72833 4.675 2.877C4.52617 3.02567 4.34792 3.1 4.14025 3.1C3.93258 3.1 3.75442 3.02567 3.60575 2.877L2.021 1.29225C1.87233 1.14358 1.798 0.967 1.798 0.7625C1.798 0.558 1.87233 0.381417 2.021 0.23275ZM2.86725 12.0405C3.01592 12.1892 3.09025 12.3658 3.09025 12.5703C3.09025 12.7748 3.01592 12.9513 2.86725 13.1L1.2825 14.6848C1.13383 14.8334 0.95725 14.9078 0.75275 14.9078C0.54825 14.9078 0.371667 14.8334 0.223 14.6848C0.0743333 14.5359 0 14.3577 0 14.15C0 13.9423 0.0743333 13.7642 0.223 13.6155L1.8135 12.0308C1.96217 11.8821 2.13775 11.8093 2.34025 11.8125C2.54292 11.8158 2.71858 11.8918 2.86725 12.0405ZM9.848 13.825L5.51525 16.4307C5.37042 16.5154 5.22525 16.551 5.07975 16.5375C4.93425 16.524 4.8025 16.475 4.6845 16.3905C4.56667 16.3058 4.47567 16.1952 4.4115 16.0588C4.34733 15.9222 4.33708 15.7712 4.38075 15.6058L5.52875 10.7078L1.7 7.398C1.57183 7.2865 1.49167 7.15733 1.4595 7.0105C1.4275 6.86383 1.43842 6.72125 1.49225 6.58275C1.54608 6.44425 1.62367 6.33108 1.725 6.24325C1.82617 6.15542 1.96458 6.09808 2.14025 6.07125L7.18275 5.6365L9.14425 1.004C9.20825 0.848833 9.30533 0.734084 9.4355 0.65975C9.56567 0.585417 9.70317 0.54825 9.848 0.54825C9.99283 0.54825 10.1303 0.585417 10.2605 0.65975C10.3907 0.734084 10.4878 0.848833 10.5518 1.004L12.523 5.6365L17.5653 6.07125C17.7409 6.09808 17.8794 6.15542 17.9807 6.24325C18.0819 6.33108 18.1594 6.44425 18.2132 6.58275C18.2673 6.72125 18.2782 6.86383 18.246 7.0105C18.214 7.15733 18.1339 7.2865 18.0058 7.398L14.1768 10.7078L15.325 15.6155C15.3685 15.7808 15.3582 15.9302 15.2942 16.0635C15.2301 16.1968 15.139 16.3058 15.021 16.3905C14.9032 16.475 14.7715 16.524 14.626 16.5375C14.4805 16.551 14.3352 16.5154 14.1902 16.4307L9.848 13.825Z" fill="#FF6230"/>
</svg>
