<svg width="148" height="37" viewBox="0 0 148 37" fill="none" xmlns="http://www.w3.org/2000/svg">
<path d="M144.165 7.35632H147.429L139.373 29.4253H136.125L138.785 22.069L133.508 7.35632H136.845L140.314 17.8759L144.165 7.35632Z" fill="white"/>
<path d="M144.165 7.35632H147.429L139.373 29.4253H136.125L138.785 22.069L133.508 7.35632H136.845L140.314 17.8759L144.165 7.35632Z" fill="url(#paint0_radial_1725_2714)"/>
<path d="M122.427 22.0688V7.35612H125.485V8.91566C125.994 8.30754 126.621 7.82693 127.366 7.47383C128.111 7.12072 128.915 6.94417 129.777 6.94417C130.326 6.94417 130.87 7.01773 131.409 7.16486L130.189 10.2545C129.806 10.1074 129.424 10.0338 129.042 10.0338C128.395 10.0338 127.802 10.1957 127.263 10.5193C126.724 10.8332 126.293 11.2599 125.97 11.7993C125.646 12.3388 125.485 12.9371 125.485 13.5943V22.0688H122.427Z" fill="white"/>
<path d="M122.427 22.0688V7.35612H125.485V8.91566C125.994 8.30754 126.621 7.82693 127.366 7.47383C128.111 7.12072 128.915 6.94417 129.777 6.94417C130.326 6.94417 130.87 7.01773 131.409 7.16486L130.189 10.2545C129.806 10.1074 129.424 10.0338 129.042 10.0338C128.395 10.0338 127.802 10.1957 127.263 10.5193C126.724 10.8332 126.293 11.2599 125.97 11.7993C125.646 12.3388 125.485 12.9371 125.485 13.5943V22.0688H122.427Z" fill="url(#paint1_radial_1725_2714)"/>
<path d="M112.978 22.4513C111.625 22.4513 110.391 22.1031 109.274 21.4067C108.166 20.7103 107.279 19.7785 106.613 18.6113C105.956 17.4343 105.628 16.1347 105.628 14.7124C105.628 13.6335 105.819 12.6282 106.201 11.6964C106.584 10.7547 107.108 9.93084 107.774 9.22463C108.45 8.50861 109.234 7.94953 110.126 7.54739C111.018 7.14524 111.968 6.94417 112.978 6.94417C114.33 6.94417 115.56 7.29237 116.667 7.98877C117.784 8.68517 118.671 9.62187 119.328 10.7989C119.994 11.9759 120.327 13.2804 120.327 14.7124C120.327 15.7816 120.136 16.782 119.754 17.7138C119.372 18.6456 118.843 19.4695 118.167 20.1856C117.5 20.8918 116.721 21.4459 115.829 21.8481C114.947 22.2502 113.997 22.4513 112.978 22.4513ZM112.978 19.3911C113.791 19.3911 114.521 19.1753 115.168 18.7437C115.815 18.3121 116.324 17.7433 116.697 17.037C117.079 16.321 117.27 15.5462 117.27 14.7124C117.27 13.8591 117.074 13.0744 116.682 12.3584C116.3 11.6424 115.785 11.0735 115.139 10.6518C114.492 10.2202 113.772 10.0044 112.978 10.0044C112.174 10.0044 111.444 10.2202 110.788 10.6518C110.141 11.0833 109.626 11.6571 109.244 12.3731C108.872 13.0892 108.686 13.8689 108.686 14.7124C108.686 15.5854 108.882 16.375 109.274 17.0812C109.666 17.7874 110.185 18.3514 110.832 18.7731C111.488 19.1851 112.204 19.3911 112.978 19.3911Z" fill="white"/>
<path d="M112.978 22.4513C111.625 22.4513 110.391 22.1031 109.274 21.4067C108.166 20.7103 107.279 19.7785 106.613 18.6113C105.956 17.4343 105.628 16.1347 105.628 14.7124C105.628 13.6335 105.819 12.6282 106.201 11.6964C106.584 10.7547 107.108 9.93084 107.774 9.22463C108.45 8.50861 109.234 7.94953 110.126 7.54739C111.018 7.14524 111.968 6.94417 112.978 6.94417C114.33 6.94417 115.56 7.29237 116.667 7.98877C117.784 8.68517 118.671 9.62187 119.328 10.7989C119.994 11.9759 120.327 13.2804 120.327 14.7124C120.327 15.7816 120.136 16.782 119.754 17.7138C119.372 18.6456 118.843 19.4695 118.167 20.1856C117.5 20.8918 116.721 21.4459 115.829 21.8481C114.947 22.2502 113.997 22.4513 112.978 22.4513ZM112.978 19.3911C113.791 19.3911 114.521 19.1753 115.168 18.7437C115.815 18.3121 116.324 17.7433 116.697 17.037C117.079 16.321 117.27 15.5462 117.27 14.7124C117.27 13.8591 117.074 13.0744 116.682 12.3584C116.3 11.6424 115.785 11.0735 115.139 10.6518C114.492 10.2202 113.772 10.0044 112.978 10.0044C112.174 10.0044 111.444 10.2202 110.788 10.6518C110.141 11.0833 109.626 11.6571 109.244 12.3731C108.872 13.0892 108.686 13.8689 108.686 14.7124C108.686 15.5854 108.882 16.375 109.274 17.0812C109.666 17.7874 110.185 18.3514 110.832 18.7731C111.488 19.1851 112.204 19.3911 112.978 19.3911Z" fill="url(#paint2_radial_1725_2714)"/>
<path d="M100.471 22.069V0H103.528V22.069H100.471Z" fill="white"/>
<path d="M100.471 22.069V0H103.528V22.069H100.471Z" fill="url(#paint3_radial_1725_2714)"/>
<path d="M69.4249 22.4513C68.0726 22.4513 66.8379 22.1031 65.7207 21.4067C64.6134 20.7103 63.7265 19.7785 63.0601 18.6113C62.4036 17.4343 62.0753 16.1347 62.0753 14.7124C62.0753 13.6335 62.2664 12.6282 62.6486 11.6964C63.0307 10.7547 63.555 9.93084 64.2214 9.22463C64.8976 8.50861 65.6815 7.94953 66.5733 7.54739C67.465 7.14524 68.4156 6.94417 69.4249 6.94417C70.5519 6.94417 71.5857 7.17957 72.5265 7.65038C73.4672 8.11137 74.2708 8.75383 74.9372 9.57773C75.6035 10.3918 76.0935 11.3334 76.4071 12.4026C76.7207 13.4619 76.8138 14.5898 76.6864 15.7865H65.3532C65.4806 16.4633 65.7256 17.0763 66.0882 17.6256C66.4606 18.165 66.9309 18.5917 67.4993 18.9055C68.0775 19.2194 68.7194 19.3813 69.4249 19.3911C70.1697 19.3911 70.8459 19.2047 71.4534 18.832C72.0708 18.4593 72.5755 17.9443 72.9675 17.2872L76.069 18.0081C75.481 19.3126 74.5942 20.3817 73.4084 21.2154C72.2227 22.0393 70.8949 22.4513 69.4249 22.4513ZM65.2503 13.4472H73.5995C73.5015 12.741 73.2516 12.1034 72.8499 11.5345C72.4579 10.9558 71.963 10.4997 71.3652 10.1662C70.7773 9.82294 70.1305 9.6513 69.4249 9.6513C68.7292 9.6513 68.0824 9.81804 67.4846 10.1515C66.8967 10.485 66.4067 10.9411 66.0147 11.5198C65.6325 12.0887 65.3777 12.7311 65.2503 13.4472Z" fill="white"/>
<path d="M69.4249 22.4513C68.0726 22.4513 66.8379 22.1031 65.7207 21.4067C64.6134 20.7103 63.7265 19.7785 63.0601 18.6113C62.4036 17.4343 62.0753 16.1347 62.0753 14.7124C62.0753 13.6335 62.2664 12.6282 62.6486 11.6964C63.0307 10.7547 63.555 9.93084 64.2214 9.22463C64.8976 8.50861 65.6815 7.94953 66.5733 7.54739C67.465 7.14524 68.4156 6.94417 69.4249 6.94417C70.5519 6.94417 71.5857 7.17957 72.5265 7.65038C73.4672 8.11137 74.2708 8.75383 74.9372 9.57773C75.6035 10.3918 76.0935 11.3334 76.4071 12.4026C76.7207 13.4619 76.8138 14.5898 76.6864 15.7865H65.3532C65.4806 16.4633 65.7256 17.0763 66.0882 17.6256C66.4606 18.165 66.9309 18.5917 67.4993 18.9055C68.0775 19.2194 68.7194 19.3813 69.4249 19.3911C70.1697 19.3911 70.8459 19.2047 71.4534 18.832C72.0708 18.4593 72.5755 17.9443 72.9675 17.2872L76.069 18.0081C75.481 19.3126 74.5942 20.3817 73.4084 21.2154C72.2227 22.0393 70.8949 22.4513 69.4249 22.4513ZM65.2503 13.4472H73.5995C73.5015 12.741 73.2516 12.1034 72.8499 11.5345C72.4579 10.9558 71.963 10.4997 71.3652 10.1662C70.7773 9.82294 70.1305 9.6513 69.4249 9.6513C68.7292 9.6513 68.0824 9.81804 67.4846 10.1515C66.8967 10.485 66.4067 10.9411 66.0147 11.5198C65.6325 12.0887 65.3777 12.7311 65.2503 13.4472Z" fill="url(#paint4_radial_1725_2714)"/>
<path d="M36.7945 22.0688V7.35612H39.852V8.91566C40.3615 8.30754 40.9838 7.82693 41.7188 7.47383C42.4635 7.12072 43.2671 6.94417 44.1294 6.94417C45.178 6.94417 46.1432 7.19919 47.0252 7.70923C47.9072 8.20946 48.6078 8.87643 49.1272 9.71015C49.6466 8.87643 50.3374 8.20946 51.1998 7.70923C52.072 7.19919 53.0323 6.94417 54.0809 6.94417C55.1686 6.94417 56.1584 7.209 57.0501 7.73865C57.9419 8.26831 58.6523 8.97942 59.1815 9.87199C59.7107 10.7646 59.9753 11.7552 59.9753 12.8439V22.0688H56.9178V13.6237C56.9178 12.9764 56.761 12.3829 56.4474 11.8435C56.1339 11.304 55.7125 10.8675 55.1833 10.5341C54.6541 10.2006 54.0662 10.0338 53.4194 10.0338C52.7726 10.0338 52.1847 10.1908 51.6555 10.5046C51.1263 10.8185 50.7049 11.2452 50.3913 11.7846C50.0778 12.3241 49.921 12.9371 49.921 13.6237V22.0688H46.8635V13.6237C46.8635 12.9371 46.7067 12.3241 46.3931 11.7846C46.0796 11.2452 45.6533 10.8185 45.1143 10.5046C44.5851 10.1908 43.9972 10.0338 43.3504 10.0338C42.7134 10.0338 42.1255 10.2006 41.5865 10.5341C41.0573 10.8675 40.6359 11.304 40.3223 11.8435C40.0088 12.3829 39.852 12.9764 39.852 13.6237V22.0688H36.7945Z" fill="white"/>
<path d="M36.7945 22.0688V7.35612H39.852V8.91566C40.3615 8.30754 40.9838 7.82693 41.7188 7.47383C42.4635 7.12072 43.2671 6.94417 44.1294 6.94417C45.178 6.94417 46.1432 7.19919 47.0252 7.70923C47.9072 8.20946 48.6078 8.87643 49.1272 9.71015C49.6466 8.87643 50.3374 8.20946 51.1998 7.70923C52.072 7.19919 53.0323 6.94417 54.0809 6.94417C55.1686 6.94417 56.1584 7.209 57.0501 7.73865C57.9419 8.26831 58.6523 8.97942 59.1815 9.87199C59.7107 10.7646 59.9753 11.7552 59.9753 12.8439V22.0688H56.9178V13.6237C56.9178 12.9764 56.761 12.3829 56.4474 11.8435C56.1339 11.304 55.7125 10.8675 55.1833 10.5341C54.6541 10.2006 54.0662 10.0338 53.4194 10.0338C52.7726 10.0338 52.1847 10.1908 51.6555 10.5046C51.1263 10.8185 50.7049 11.2452 50.3913 11.7846C50.0778 12.3241 49.921 12.9371 49.921 13.6237V22.0688H46.8635V13.6237C46.8635 12.9371 46.7067 12.3241 46.3931 11.7846C46.0796 11.2452 45.6533 10.8185 45.1143 10.5046C44.5851 10.1908 43.9972 10.0338 43.3504 10.0338C42.7134 10.0338 42.1255 10.2006 41.5865 10.5341C41.0573 10.8675 40.6359 11.304 40.3223 11.8435C40.0088 12.3829 39.852 12.9764 39.852 13.6237V22.0688H36.7945Z" fill="url(#paint5_radial_1725_2714)"/>
<path d="M31.637 7.35612H34.6945V22.0688H31.6223L31.5047 19.9354C31.0736 20.6907 30.4905 21.2988 29.7555 21.7598C29.0206 22.2208 28.1533 22.4513 27.1537 22.4513C26.0758 22.4513 25.0616 22.2502 24.111 21.8481C23.1604 21.4361 22.3226 20.8672 21.5974 20.1414C20.8821 19.4156 20.3235 18.5819 19.9217 17.6403C19.5199 16.6888 19.319 15.6688 19.319 14.58C19.319 13.5305 19.515 12.5448 19.907 11.6228C20.299 10.691 20.8429 9.87689 21.5386 9.18049C22.2344 8.48409 23.038 7.93973 23.9493 7.54739C24.8705 7.14524 25.8553 6.94417 26.9039 6.94417C27.972 6.94417 28.9128 7.18938 29.7261 7.6798C30.5493 8.16042 31.2303 8.77835 31.7693 9.5336L31.637 7.35612ZM27.0802 19.4941C27.9426 19.4941 28.6972 19.2832 29.3439 18.8614C29.9907 18.4298 30.4905 17.8511 30.8433 17.1253C31.2058 16.3995 31.3871 15.5952 31.3871 14.7124C31.3871 13.8199 31.2058 13.0107 30.8433 12.2849C30.4807 11.559 29.976 10.9852 29.3292 10.5635C28.6923 10.1319 27.9426 9.91612 27.0802 9.91612C26.2277 9.91612 25.4486 10.1319 24.7431 10.5635C24.0375 10.9951 23.4789 11.5737 23.0674 12.2996C22.6558 13.0254 22.45 13.8297 22.45 14.7124C22.45 15.605 22.6607 16.4142 23.0821 17.14C23.5132 17.856 24.0767 18.4298 24.7725 18.8614C25.478 19.2832 26.2473 19.4941 27.0802 19.4941Z" fill="white"/>
<path d="M31.637 7.35612H34.6945V22.0688H31.6223L31.5047 19.9354C31.0736 20.6907 30.4905 21.2988 29.7555 21.7598C29.0206 22.2208 28.1533 22.4513 27.1537 22.4513C26.0758 22.4513 25.0616 22.2502 24.111 21.8481C23.1604 21.4361 22.3226 20.8672 21.5974 20.1414C20.8821 19.4156 20.3235 18.5819 19.9217 17.6403C19.5199 16.6888 19.319 15.6688 19.319 14.58C19.319 13.5305 19.515 12.5448 19.907 11.6228C20.299 10.691 20.8429 9.87689 21.5386 9.18049C22.2344 8.48409 23.038 7.93973 23.9493 7.54739C24.8705 7.14524 25.8553 6.94417 26.9039 6.94417C27.972 6.94417 28.9128 7.18938 29.7261 7.6798C30.5493 8.16042 31.2303 8.77835 31.7693 9.5336L31.637 7.35612ZM27.0802 19.4941C27.9426 19.4941 28.6972 19.2832 29.3439 18.8614C29.9907 18.4298 30.4905 17.8511 30.8433 17.1253C31.2058 16.3995 31.3871 15.5952 31.3871 14.7124C31.3871 13.8199 31.2058 13.0107 30.8433 12.2849C30.4807 11.559 29.976 10.9852 29.3292 10.5635C28.6923 10.1319 27.9426 9.91612 27.0802 9.91612C26.2277 9.91612 25.4486 10.1319 24.7431 10.5635C24.0375 10.9951 23.4789 11.5737 23.0674 12.2996C22.6558 13.0254 22.45 13.8297 22.45 14.7124C22.45 15.605 22.6607 16.4142 23.0821 17.14C23.5132 17.856 24.0767 18.4298 24.7725 18.8614C25.478 19.2832 26.2473 19.4941 27.0802 19.4941Z" fill="url(#paint6_radial_1725_2714)"/>
<path d="M1.82691 21.9639C2.83588 21.9639 3.65383 22.7814 3.65383 23.7898C3.65383 24.1559 3.72115 24.541 3.98014 24.7999L4.47005 25.2895C4.72904 25.5484 5.11442 25.6158 5.4807 25.6158H12.7883C13.7973 25.6158 14.6153 26.4333 14.6153 27.4417C14.6153 27.8289 14.6815 28.2386 14.9554 28.5124L15.3709 28.9276C15.6448 29.2014 16.0547 29.2677 16.4422 29.2677C17.4512 29.2677 18.2691 30.0852 18.2691 31.0936C18.2691 32.102 17.4512 32.9195 16.4422 32.9195C16.0623 32.9195 15.6613 32.9861 15.3927 33.2545L14.9505 33.6965C14.6819 33.965 14.6153 34.3658 14.6153 34.7455C14.6153 35.7539 13.7973 36.5714 12.7883 36.5714H5.4807C4.47173 36.5714 3.65378 35.7539 3.65378 34.7455C3.65378 34.4453 3.58659 34.1348 3.37422 33.9226L2.65011 33.1989C2.43777 32.9866 2.1272 32.9195 1.82691 32.9195C0.817937 32.9195 0 32.102 0 31.0936C0 30.0852 0.817937 29.2677 1.82691 29.2677C2.83588 29.2677 3.65383 30.0852 3.65383 31.0936C3.65383 31.6001 3.70278 32.1542 4.06114 32.5123C4.41951 32.8705 4.97389 32.9195 5.4807 32.9195H12.7883C13.2242 32.9195 13.6914 32.8582 13.9996 32.5501L14.2457 32.3041C14.5539 31.9961 14.6153 31.5292 14.6153 31.0936C14.6153 30.6652 14.553 30.207 14.2499 29.9041L13.9785 29.6328C13.6754 29.3299 13.217 29.2677 12.7883 29.2677H5.4807C4.47173 29.2676 3.65378 28.4501 3.65378 27.4417C3.65378 26.9932 3.59422 26.511 3.27695 26.1938L3.07529 25.9923C2.75805 25.6752 2.27557 25.6158 1.82691 25.6158C0.817937 25.6158 0 24.7983 0 23.7898C0 22.7814 0.817937 21.9639 1.82691 21.9639Z" fill="white"/>
<path d="M1.82691 21.9639C2.83588 21.9639 3.65383 22.7814 3.65383 23.7898C3.65383 24.1559 3.72115 24.541 3.98014 24.7999L4.47005 25.2895C4.72904 25.5484 5.11442 25.6158 5.4807 25.6158H12.7883C13.7973 25.6158 14.6153 26.4333 14.6153 27.4417C14.6153 27.8289 14.6815 28.2386 14.9554 28.5124L15.3709 28.9276C15.6448 29.2014 16.0547 29.2677 16.4422 29.2677C17.4512 29.2677 18.2691 30.0852 18.2691 31.0936C18.2691 32.102 17.4512 32.9195 16.4422 32.9195C16.0623 32.9195 15.6613 32.9861 15.3927 33.2545L14.9505 33.6965C14.6819 33.965 14.6153 34.3658 14.6153 34.7455C14.6153 35.7539 13.7973 36.5714 12.7883 36.5714H5.4807C4.47173 36.5714 3.65378 35.7539 3.65378 34.7455C3.65378 34.4453 3.58659 34.1348 3.37422 33.9226L2.65011 33.1989C2.43777 32.9866 2.1272 32.9195 1.82691 32.9195C0.817937 32.9195 0 32.102 0 31.0936C0 30.0852 0.817937 29.2677 1.82691 29.2677C2.83588 29.2677 3.65383 30.0852 3.65383 31.0936C3.65383 31.6001 3.70278 32.1542 4.06114 32.5123C4.41951 32.8705 4.97389 32.9195 5.4807 32.9195H12.7883C13.2242 32.9195 13.6914 32.8582 13.9996 32.5501L14.2457 32.3041C14.5539 31.9961 14.6153 31.5292 14.6153 31.0936C14.6153 30.6652 14.553 30.207 14.2499 29.9041L13.9785 29.6328C13.6754 29.3299 13.217 29.2677 12.7883 29.2677H5.4807C4.47173 29.2676 3.65378 28.4501 3.65378 27.4417C3.65378 26.9932 3.59422 26.511 3.27695 26.1938L3.07529 25.9923C2.75805 25.6752 2.27557 25.6158 1.82691 25.6158C0.817937 25.6158 0 24.7983 0 23.7898C0 22.7814 0.817937 21.9639 1.82691 21.9639Z" fill="url(#paint7_radial_1725_2714)"/>
<path d="M1.82691 11.0082C2.83588 11.0082 3.65383 11.8257 3.65383 12.8342V16.486C3.65383 16.8733 3.72001 17.2829 3.99396 17.5567L4.40939 17.9719C4.68335 18.2457 5.09326 18.312 5.4807 18.312H9.13452C10.1435 18.312 10.9614 19.1295 10.9614 20.1379C10.9614 21.1464 10.1435 21.9639 9.13452 21.9639H5.4807C4.47173 21.9639 3.65378 21.1464 3.65378 20.1379C3.65378 19.7095 3.59154 19.2513 3.28845 18.9484L3.01701 18.6771C2.71394 18.3742 2.25551 18.312 1.82691 18.312C0.817937 18.312 0 17.4945 0 16.486V12.8342C0 11.8257 0.817937 11.0082 1.82691 11.0082Z" fill="white"/>
<path d="M1.82691 11.0082C2.83588 11.0082 3.65383 11.8257 3.65383 12.8342V16.486C3.65383 16.8733 3.72001 17.2829 3.99396 17.5567L4.40939 17.9719C4.68335 18.2457 5.09326 18.312 5.4807 18.312H9.13452C10.1435 18.312 10.9614 19.1295 10.9614 20.1379C10.9614 21.1464 10.1435 21.9639 9.13452 21.9639H5.4807C4.47173 21.9639 3.65378 21.1464 3.65378 20.1379C3.65378 19.7095 3.59154 19.2513 3.28845 18.9484L3.01701 18.6771C2.71394 18.3742 2.25551 18.312 1.82691 18.312C0.817937 18.312 0 17.4945 0 16.486V12.8342C0 11.8257 0.817937 11.0082 1.82691 11.0082Z" fill="url(#paint8_radial_1725_2714)"/>
<path d="M9.13452 7.35632C10.1435 7.35632 10.9614 8.17383 10.9614 9.18227C10.9614 9.52191 11.0294 9.8768 11.2697 10.117L11.8531 10.7C12.0934 10.9402 12.4485 11.0082 12.7883 11.0082C13.7973 11.0082 14.6153 11.8257 14.6153 12.8342V16.486C14.6153 17.4945 13.7973 18.312 12.7883 18.312C11.7794 18.312 10.9614 17.4945 10.9614 16.486V12.8342C10.9614 12.3616 10.9059 11.8501 10.5716 11.516L10.4534 11.3978C10.1191 11.0637 9.60728 11.0082 9.13452 11.0082H5.4807C4.47173 11.0082 3.65378 10.1907 3.65378 9.18227C3.65378 8.17383 4.47173 7.35633 5.4807 7.35632H9.13452Z" fill="white"/>
<path d="M9.13452 7.35632C10.1435 7.35632 10.9614 8.17383 10.9614 9.18227C10.9614 9.52191 11.0294 9.8768 11.2697 10.117L11.8531 10.7C12.0934 10.9402 12.4485 11.0082 12.7883 11.0082C13.7973 11.0082 14.6153 11.8257 14.6153 12.8342V16.486C14.6153 17.4945 13.7973 18.312 12.7883 18.312C11.7794 18.312 10.9614 17.4945 10.9614 16.486V12.8342C10.9614 12.3616 10.9059 11.8501 10.5716 11.516L10.4534 11.3978C10.1191 11.0637 9.60728 11.0082 9.13452 11.0082H5.4807C4.47173 11.0082 3.65378 10.1907 3.65378 9.18227C3.65378 8.17383 4.47173 7.35633 5.4807 7.35632H9.13452Z" fill="url(#paint9_radial_1725_2714)"/>
<path d="M16.4422 7.35632C17.4512 7.35632 18.2691 8.17383 18.2691 9.18227C18.2691 10.1907 17.4512 11.0082 16.4422 11.0082C15.4332 11.0082 14.6153 10.1907 14.6153 9.18227C14.6153 8.17383 15.4332 7.35633 16.4422 7.35632Z" fill="white"/>
<path d="M16.4422 7.35632C17.4512 7.35632 18.2691 8.17383 18.2691 9.18227C18.2691 10.1907 17.4512 11.0082 16.4422 11.0082C15.4332 11.0082 14.6153 10.1907 14.6153 9.18227C14.6153 8.17383 15.4332 7.35633 16.4422 7.35632Z" fill="url(#paint10_radial_1725_2714)"/>
<path d="M81.7185 21.9639C82.7275 21.9639 83.5454 22.7814 83.5454 23.7898C83.5454 24.1559 83.6127 24.541 83.8717 24.7999L84.3616 25.2895C84.6206 25.5484 85.006 25.6158 85.3723 25.6158H92.6799C93.6889 25.6158 94.5069 26.4333 94.5069 27.4417C94.5069 27.8289 94.5731 28.2386 94.847 28.5124L95.2624 28.9276C95.5364 29.2014 95.9463 29.2677 96.3338 29.2677C97.3427 29.2677 98.1607 30.0852 98.1607 31.0936C98.1607 32.102 97.3427 32.9195 96.3338 32.9195C95.9539 32.9195 95.5529 32.9861 95.2843 33.2545L94.8421 33.6965C94.5735 33.965 94.5069 34.3658 94.5069 34.7455C94.5069 35.7539 93.6889 36.5714 92.6799 36.5714H85.3723C84.3633 36.5714 83.5454 35.7539 83.5454 34.7455C83.5454 34.4453 83.4782 34.1348 83.2658 33.9226L82.5417 33.1989C82.3294 32.9866 82.0188 32.9195 81.7185 32.9195C80.7095 32.9195 79.8916 32.102 79.8916 31.0936C79.8916 30.0852 80.7095 29.2677 81.7185 29.2677C82.7275 29.2677 83.5454 30.0852 83.5454 31.0936C83.5454 31.6001 83.5944 32.1542 83.9527 32.5123C84.3111 32.8705 84.8655 32.9195 85.3723 32.9195H92.6799C93.1158 32.9195 93.583 32.8582 93.8912 32.5501L94.1373 32.3041C94.4455 31.9961 94.5069 31.5292 94.5069 31.0936C94.5069 30.6652 94.4446 30.207 94.1415 29.9041L93.8701 29.6328C93.567 29.3299 93.1086 29.2677 92.6799 29.2677H85.3723C84.3633 29.2676 83.5454 28.4501 83.5454 27.4417C83.5454 26.9932 83.4858 26.511 83.1685 26.1938L82.9669 25.9923C82.6496 25.6752 82.1672 25.6158 81.7185 25.6158C80.7095 25.6158 79.8916 24.7983 79.8916 23.7898C79.8916 22.7814 80.7095 21.9639 81.7185 21.9639Z" fill="white"/>
<path d="M81.7185 21.9639C82.7275 21.9639 83.5454 22.7814 83.5454 23.7898C83.5454 24.1559 83.6127 24.541 83.8717 24.7999L84.3616 25.2895C84.6206 25.5484 85.006 25.6158 85.3723 25.6158H92.6799C93.6889 25.6158 94.5069 26.4333 94.5069 27.4417C94.5069 27.8289 94.5731 28.2386 94.847 28.5124L95.2624 28.9276C95.5364 29.2014 95.9463 29.2677 96.3338 29.2677C97.3427 29.2677 98.1607 30.0852 98.1607 31.0936C98.1607 32.102 97.3427 32.9195 96.3338 32.9195C95.9539 32.9195 95.5529 32.9861 95.2843 33.2545L94.8421 33.6965C94.5735 33.965 94.5069 34.3658 94.5069 34.7455C94.5069 35.7539 93.6889 36.5714 92.6799 36.5714H85.3723C84.3633 36.5714 83.5454 35.7539 83.5454 34.7455C83.5454 34.4453 83.4782 34.1348 83.2658 33.9226L82.5417 33.1989C82.3294 32.9866 82.0188 32.9195 81.7185 32.9195C80.7095 32.9195 79.8916 32.102 79.8916 31.0936C79.8916 30.0852 80.7095 29.2677 81.7185 29.2677C82.7275 29.2677 83.5454 30.0852 83.5454 31.0936C83.5454 31.6001 83.5944 32.1542 83.9527 32.5123C84.3111 32.8705 84.8655 32.9195 85.3723 32.9195H92.6799C93.1158 32.9195 93.583 32.8582 93.8912 32.5501L94.1373 32.3041C94.4455 31.9961 94.5069 31.5292 94.5069 31.0936C94.5069 30.6652 94.4446 30.207 94.1415 29.9041L93.8701 29.6328C93.567 29.3299 93.1086 29.2677 92.6799 29.2677H85.3723C84.3633 29.2676 83.5454 28.4501 83.5454 27.4417C83.5454 26.9932 83.4858 26.511 83.1685 26.1938L82.9669 25.9923C82.6496 25.6752 82.1672 25.6158 81.7185 25.6158C80.7095 25.6158 79.8916 24.7983 79.8916 23.7898C79.8916 22.7814 80.7095 21.9639 81.7185 21.9639Z" fill="url(#paint11_radial_1725_2714)"/>
<path d="M81.7185 11.0082C82.7275 11.0082 83.5454 11.8257 83.5454 12.8342V16.486C83.5454 16.8733 83.6116 17.2829 83.8855 17.5567L84.301 17.9719C84.5749 18.2457 84.9848 18.312 85.3723 18.312H89.0261C90.0351 18.312 90.853 19.1295 90.853 20.1379C90.853 21.1464 90.0351 21.9639 89.0261 21.9639H85.3723C84.3633 21.9639 83.5454 21.1464 83.5454 20.1379C83.5454 19.7095 83.4831 19.2513 83.18 18.9484L82.9086 18.6771C82.6055 18.3742 82.1471 18.312 81.7185 18.312C80.7095 18.312 79.8916 17.4945 79.8916 16.486V12.8342C79.8916 11.8257 80.7095 11.0082 81.7185 11.0082Z" fill="white"/>
<path d="M81.7185 11.0082C82.7275 11.0082 83.5454 11.8257 83.5454 12.8342V16.486C83.5454 16.8733 83.6116 17.2829 83.8855 17.5567L84.301 17.9719C84.5749 18.2457 84.9848 18.312 85.3723 18.312H89.0261C90.0351 18.312 90.853 19.1295 90.853 20.1379C90.853 21.1464 90.0351 21.9639 89.0261 21.9639H85.3723C84.3633 21.9639 83.5454 21.1464 83.5454 20.1379C83.5454 19.7095 83.4831 19.2513 83.18 18.9484L82.9086 18.6771C82.6055 18.3742 82.1471 18.312 81.7185 18.312C80.7095 18.312 79.8916 17.4945 79.8916 16.486V12.8342C79.8916 11.8257 80.7095 11.0082 81.7185 11.0082Z" fill="url(#paint12_radial_1725_2714)"/>
<path d="M89.0261 7.35632C90.0351 7.35632 90.853 8.17383 90.853 9.18227C90.853 9.52191 90.921 9.8768 91.1613 10.117L91.7447 10.7C91.985 10.9402 92.3401 11.0082 92.6799 11.0082C93.6889 11.0082 94.5069 11.8257 94.5069 12.8342V16.486C94.5069 17.4945 93.6889 18.312 92.6799 18.312C91.671 18.312 90.853 17.4945 90.853 16.486V12.8342C90.853 12.3616 90.7975 11.8501 90.4632 11.516L90.3449 11.3978C90.0106 11.0637 89.4989 11.0082 89.0261 11.0082H85.3723C84.3633 11.0082 83.5454 10.1907 83.5454 9.18227C83.5454 8.17383 84.3633 7.35633 85.3723 7.35632H89.0261Z" fill="white"/>
<path d="M89.0261 7.35632C90.0351 7.35632 90.853 8.17383 90.853 9.18227C90.853 9.52191 90.921 9.8768 91.1613 10.117L91.7447 10.7C91.985 10.9402 92.3401 11.0082 92.6799 11.0082C93.6889 11.0082 94.5069 11.8257 94.5069 12.8342V16.486C94.5069 17.4945 93.6889 18.312 92.6799 18.312C91.671 18.312 90.853 17.4945 90.853 16.486V12.8342C90.853 12.3616 90.7975 11.8501 90.4632 11.516L90.3449 11.3978C90.0106 11.0637 89.4989 11.0082 89.0261 11.0082H85.3723C84.3633 11.0082 83.5454 10.1907 83.5454 9.18227C83.5454 8.17383 84.3633 7.35633 85.3723 7.35632H89.0261Z" fill="url(#paint13_radial_1725_2714)"/>
<path d="M96.3338 7.35632C97.3427 7.35632 98.1607 8.17383 98.1607 9.18227C98.1607 10.1907 97.3427 11.0082 96.3338 11.0082C95.3248 11.0082 94.5069 10.1907 94.5069 9.18227C94.5069 8.17383 95.3248 7.35633 96.3338 7.35632Z" fill="white"/>
<path d="M96.3338 7.35632C97.3427 7.35632 98.1607 8.17383 98.1607 9.18227C98.1607 10.1907 97.3427 11.0082 96.3338 11.0082C95.3248 11.0082 94.5069 10.1907 94.5069 9.18227C94.5069 8.17383 95.3248 7.35633 96.3338 7.35632Z" fill="url(#paint14_radial_1725_2714)"/>
<defs>
<radialGradient id="paint0_radial_1725_2714" cx="0" cy="0" r="1" gradientTransform="matrix(147.429 36.5714 -147.429 2670.62 8.77807e-06 0.415507)" gradientUnits="userSpaceOnUse">
<stop stop-color="#FF7549"/>
<stop offset="1" stop-color="#FF5620"/>
</radialGradient>
<radialGradient id="paint1_radial_1725_2714" cx="0" cy="0" r="1" gradientTransform="matrix(147.429 36.5714 -147.429 2670.62 8.77807e-06 0.415507)" gradientUnits="userSpaceOnUse">
<stop stop-color="#FF7549"/>
<stop offset="1" stop-color="#FF5620"/>
</radialGradient>
<radialGradient id="paint2_radial_1725_2714" cx="0" cy="0" r="1" gradientTransform="matrix(147.429 36.5714 -147.429 2670.62 8.77807e-06 0.415507)" gradientUnits="userSpaceOnUse">
<stop stop-color="#FF7549"/>
<stop offset="1" stop-color="#FF5620"/>
</radialGradient>
<radialGradient id="paint3_radial_1725_2714" cx="0" cy="0" r="1" gradientTransform="matrix(147.429 36.5714 -147.429 2670.62 8.77807e-06 0.415507)" gradientUnits="userSpaceOnUse">
<stop stop-color="#FF7549"/>
<stop offset="1" stop-color="#FF5620"/>
</radialGradient>
<radialGradient id="paint4_radial_1725_2714" cx="0" cy="0" r="1" gradientTransform="matrix(147.429 36.5714 -147.429 2670.62 8.77807e-06 0.415507)" gradientUnits="userSpaceOnUse">
<stop stop-color="#FF7549"/>
<stop offset="1" stop-color="#FF5620"/>
</radialGradient>
<radialGradient id="paint5_radial_1725_2714" cx="0" cy="0" r="1" gradientTransform="matrix(147.429 36.5714 -147.429 2670.62 8.77807e-06 0.415507)" gradientUnits="userSpaceOnUse">
<stop stop-color="#FF7549"/>
<stop offset="1" stop-color="#FF5620"/>
</radialGradient>
<radialGradient id="paint6_radial_1725_2714" cx="0" cy="0" r="1" gradientTransform="matrix(147.429 36.5714 -147.429 2670.62 8.77807e-06 0.415507)" gradientUnits="userSpaceOnUse">
<stop stop-color="#FF7549"/>
<stop offset="1" stop-color="#FF5620"/>
</radialGradient>
<radialGradient id="paint7_radial_1725_2714" cx="0" cy="0" r="1" gradientTransform="matrix(147.429 36.5714 -147.429 2670.62 8.77807e-06 0.415507)" gradientUnits="userSpaceOnUse">
<stop stop-color="#FF7549"/>
<stop offset="1" stop-color="#FF5620"/>
</radialGradient>
<radialGradient id="paint8_radial_1725_2714" cx="0" cy="0" r="1" gradientTransform="matrix(147.429 36.5714 -147.429 2670.62 8.77807e-06 0.415507)" gradientUnits="userSpaceOnUse">
<stop stop-color="#FF7549"/>
<stop offset="1" stop-color="#FF5620"/>
</radialGradient>
<radialGradient id="paint9_radial_1725_2714" cx="0" cy="0" r="1" gradientTransform="matrix(147.429 36.5714 -147.429 2670.62 8.77807e-06 0.415507)" gradientUnits="userSpaceOnUse">
<stop stop-color="#FF7549"/>
<stop offset="1" stop-color="#FF5620"/>
</radialGradient>
<radialGradient id="paint10_radial_1725_2714" cx="0" cy="0" r="1" gradientTransform="matrix(147.429 36.5714 -147.429 2670.62 8.77807e-06 0.415507)" gradientUnits="userSpaceOnUse">
<stop stop-color="#FF7549"/>
<stop offset="1" stop-color="#FF5620"/>
</radialGradient>
<radialGradient id="paint11_radial_1725_2714" cx="0" cy="0" r="1" gradientTransform="matrix(147.429 36.5714 -147.429 2670.62 8.77807e-06 0.415507)" gradientUnits="userSpaceOnUse">
<stop stop-color="#FF7549"/>
<stop offset="1" stop-color="#FF5620"/>
</radialGradient>
<radialGradient id="paint12_radial_1725_2714" cx="0" cy="0" r="1" gradientTransform="matrix(147.429 36.5714 -147.429 2670.62 8.77807e-06 0.415507)" gradientUnits="userSpaceOnUse">
<stop stop-color="#FF7549"/>
<stop offset="1" stop-color="#FF5620"/>
</radialGradient>
<radialGradient id="paint13_radial_1725_2714" cx="0" cy="0" r="1" gradientTransform="matrix(147.429 36.5714 -147.429 2670.62 8.77807e-06 0.415507)" gradientUnits="userSpaceOnUse">
<stop stop-color="#FF7549"/>
<stop offset="1" stop-color="#FF5620"/>
</radialGradient>
<radialGradient id="paint14_radial_1725_2714" cx="0" cy="0" r="1" gradientTransform="matrix(147.429 36.5714 -147.429 2670.62 8.77807e-06 0.415507)" gradientUnits="userSpaceOnUse">
<stop stop-color="#FF7549"/>
<stop offset="1" stop-color="#FF5620"/>
</radialGradient>
</defs>
</svg>

