<svg width="50" height="50" viewBox="0 0 50 50" fill="none" xmlns="http://www.w3.org/2000/svg">
<rect width="50" height="50" rx="10" fill="url(#paint0_radial_1483_1391)"/>
<path d="M17.1237 25.2688C18.2103 25.2688 19.0911 26.1492 19.0911 27.2352C19.0911 27.6294 19.1636 28.0442 19.4426 28.323L19.9701 28.8503C20.2491 29.129 20.6641 29.2016 21.0585 29.2016H28.9283C30.0149 29.2016 30.8958 30.082 30.8958 31.168C30.8958 31.585 30.9671 32.0262 31.2621 32.321L31.7095 32.7682C32.0045 33.0631 32.446 33.1344 32.8632 33.1344C33.9498 33.1344 34.8307 34.0148 34.8307 35.1008C34.8307 36.1868 33.9498 37.0672 32.8632 37.0672C32.4542 37.0672 32.0223 37.1389 31.733 37.428L31.2568 37.904C30.9675 38.1931 30.8958 38.6248 30.8958 39.0336C30.8958 40.1196 30.0149 41 28.9283 41H21.0585C19.972 41 19.0911 40.1196 19.0911 39.0336C19.0911 38.7103 19.0187 38.376 18.79 38.1474L18.0102 37.368C17.7815 37.1395 17.4471 37.0672 17.1237 37.0672C16.0371 37.0672 15.1562 36.1868 15.1562 35.1008C15.1562 34.0148 16.0371 33.1344 17.1237 33.1344C18.2103 33.1344 19.0911 34.0148 19.0911 35.1008C19.0911 35.6463 19.1439 36.243 19.5298 36.6287C19.9157 37.0144 20.5127 37.0672 21.0585 37.0672H28.9283C29.3977 37.0672 29.9008 37.0011 30.2327 36.6694L30.4978 36.4045C30.8297 36.0727 30.8958 35.57 30.8958 35.1008C30.8958 34.6395 30.8287 34.146 30.5023 33.8198L30.21 33.5276C29.8836 33.2014 29.3899 33.1344 28.9283 33.1344H21.0585C19.972 33.1344 19.0911 32.254 19.0911 31.168C19.0911 30.6851 19.027 30.1657 18.6853 29.8242L18.4681 29.6071C18.1265 29.2656 17.6069 29.2016 17.1237 29.2016C16.0371 29.2016 15.1562 28.3212 15.1562 27.2352C15.1562 26.1492 16.0371 25.2688 17.1237 25.2688Z" fill="white"/>
<path d="M17.1237 13.4704C18.2103 13.4704 19.0911 14.3508 19.0911 15.4368V19.3696C19.0911 19.7866 19.1624 20.2278 19.4574 20.5226L19.9048 20.9698C20.1999 21.2647 20.6413 21.336 21.0585 21.336H24.9934C26.08 21.336 26.9609 22.2164 26.9609 23.3024C26.9609 24.3884 26.08 25.2688 24.9934 25.2688H21.0585C19.972 25.2688 19.0911 24.3884 19.0911 23.3024C19.0911 22.8411 19.0241 22.3476 18.6977 22.0214L18.4053 21.7292C18.079 21.403 17.5853 21.336 17.1237 21.336C16.0371 21.336 15.1562 20.4556 15.1562 19.3696V15.4368C15.1562 14.3508 16.0371 13.4704 17.1237 13.4704Z" fill="white"/>
<path d="M24.9934 9.5376C26.08 9.5376 26.9609 10.418 26.9609 11.504C26.9609 11.8698 27.0341 12.252 27.2929 12.5106L27.9211 13.1385C28.1799 13.3971 28.5623 13.4704 28.9283 13.4704C30.0149 13.4704 30.8958 14.3508 30.8958 15.4368V19.3696C30.8958 20.4556 30.0149 21.336 28.9283 21.336C27.8417 21.336 26.9609 20.4556 26.9609 19.3696V15.4368C26.9609 14.9279 26.9011 14.377 26.541 14.0172L26.4137 13.89C26.0537 13.5302 25.5026 13.4704 24.9934 13.4704H21.0585C19.972 13.4704 19.0911 12.59 19.0911 11.504C19.0911 10.418 19.972 9.53761 21.0585 9.5376H24.9934Z" fill="white"/>
<path d="M32.8632 9.5376C33.9498 9.5376 34.8307 10.418 34.8307 11.504C34.8307 12.59 33.9498 13.4704 32.8632 13.4704C31.7766 13.4704 30.8958 12.59 30.8958 11.504C30.8958 10.418 31.7766 9.53761 32.8632 9.5376Z" fill="white"/>
<defs>
<radialGradient id="paint0_radial_1483_1391" cx="0" cy="0" r="1" gradientTransform="matrix(50 50 -50 3651.24 2.97706e-06 0.568076)" gradientUnits="userSpaceOnUse">
<stop stop-color="#FF7549"/>
<stop offset="1" stop-color="#FF5620"/>
</radialGradient>
</defs>
</svg>