<svg width="22" height="22" viewBox="0 0 22 22" fill="none" xmlns="http://www.w3.org/2000/svg">
<mask id="mask0_1509_11382" style="mask-type:alpha" maskUnits="userSpaceOnUse" x="0" y="0" width="22" height="22">
<rect width="22" height="22" fill="#D9D9D9"/>
</mask>
<g mask="url(#mask0_1509_11382)">
<path d="M9.58177 11.5677L10.8351 12.821C10.9856 12.9773 11.1775 13.0554 11.4108 13.0554C11.644 13.0554 11.8388 12.9773 11.9951 12.821L14.8984 9.92639V11.023C14.8984 11.2121 14.9643 11.3701 15.096 11.4971C15.2275 11.6241 15.3908 11.6875 15.5859 11.6875C15.7751 11.6875 15.9369 11.6217 16.0715 11.49C16.2061 11.3585 16.2734 11.1951 16.2734 11V8.39098C16.2734 8.16074 16.1929 7.96511 16.0319 7.80408C15.8709 7.64305 15.6752 7.56254 15.445 7.56254H12.813C12.6239 7.56254 12.4658 7.62984 12.3389 7.76444C12.2119 7.89903 12.1484 8.0609 12.1484 8.25004C12.1484 8.44514 12.2143 8.60846 12.346 8.74C12.4775 8.87169 12.6408 8.93754 12.8359 8.93754H13.9096L11.4151 11.4636L10.1618 10.2103C10.0055 10.0446 9.81071 9.96169 9.57742 9.96169C9.34412 9.96169 9.15224 10.0446 9.00175 10.2103L6.30285 12.9003C6.16658 13.0332 6.09844 13.1957 6.09844 13.3877C6.09844 13.5799 6.16658 13.7395 6.30285 13.8665C6.43577 14.0085 6.59825 14.0796 6.79029 14.0796C6.98249 14.0796 7.14206 14.0085 7.26902 13.8665L9.58177 11.5677ZM4.86804 18.7917C4.40497 18.7917 4.01302 18.6313 3.69219 18.3105C3.37135 17.9896 3.21094 17.5977 3.21094 17.1346V4.86548C3.21094 4.40241 3.37135 4.01046 3.69219 3.68962C4.01302 3.36879 4.40497 3.20837 4.86804 3.20837H17.1372C17.6002 3.20837 17.9922 3.36879 18.313 3.68962C18.6339 4.01046 18.7943 4.40241 18.7943 4.86548V17.1346C18.7943 17.5977 18.6339 17.9896 18.313 18.3105C17.9922 18.6313 17.6002 18.7917 17.1372 18.7917H4.86804Z" fill="#3AD867"/>
</g>
</svg>
