<svg width="22" height="22" viewBox="0 0 22 22" fill="none" xmlns="http://www.w3.org/2000/svg">
<mask id="mask0_1509_11366" style="mask-type:alpha" maskUnits="userSpaceOnUse" x="0" y="0" width="22" height="22">
<rect width="22" height="22" fill="#D9D9D9"/>
</mask>
<g mask="url(#mask0_1509_11366)">
<path d="M13.7096 7.34913C13.7096 6.59227 13.4566 5.98437 12.9508 5.52542C12.4448 5.06663 11.7769 4.83724 10.9472 4.83724C10.4219 4.83724 9.95627 4.94441 9.55018 5.15876C9.1441 5.37326 8.79355 5.69615 8.49854 6.12745C8.32468 6.37311 8.0923 6.51825 7.80141 6.56286C7.51068 6.60763 7.25653 6.53659 7.03897 6.34974C6.8781 6.20979 6.7862 6.0344 6.76329 5.82357C6.74037 5.61258 6.78941 5.41245 6.91041 5.22315C7.37577 4.51931 7.95136 3.98405 8.63718 3.61738C9.32285 3.25072 10.0928 3.06738 10.9472 3.06738C12.3116 3.06738 13.4223 3.45811 14.279 4.23957C15.1357 5.02103 15.564 6.03876 15.564 7.29276C15.564 7.95673 15.4218 8.56517 15.1375 9.11807C14.853 9.67113 14.3683 10.2661 13.6832 10.903C13.0415 11.4848 12.6038 11.957 12.3698 12.3195C12.1359 12.6821 12.0002 13.0895 11.9626 13.5419C11.925 13.8028 11.8169 14.0203 11.6383 14.1941C11.4596 14.3681 11.2445 14.4551 10.993 14.4551C10.7415 14.4551 10.5265 14.369 10.3479 14.1969C10.1693 14.0247 10.08 13.8129 10.08 13.5614C10.08 12.948 10.2201 12.3871 10.5003 11.8788C10.7807 11.3706 11.2499 10.8238 11.9081 10.2385C12.6109 9.62155 13.0868 9.10677 13.3358 8.69411C13.585 8.28161 13.7096 7.83329 13.7096 7.34913ZM10.9472 19.7083C10.5723 19.7083 10.2494 19.5729 9.9785 19.302C9.70762 19.0311 9.57218 18.7082 9.57218 18.3333C9.57218 17.9584 9.70762 17.6355 9.9785 17.3646C10.2494 17.0938 10.5723 16.9583 10.9472 16.9583C11.3221 16.9583 11.645 17.0938 11.9159 17.3646C12.1867 17.6355 12.3222 17.9584 12.3222 18.3333C12.3222 18.7082 12.1867 19.0311 11.9159 19.302C11.645 19.5729 11.3221 19.7083 10.9472 19.7083Z" fill="#D93232"/>
</g>
</svg>
