<svg width="22" height="22" viewBox="0 0 22 22" fill="none" xmlns="http://www.w3.org/2000/svg">
<mask id="mask0_1509_11374" style="mask-type:alpha" maskUnits="userSpaceOnUse" x="0" y="0" width="22" height="22">
<rect width="22" height="22" fill="#D9D9D9"/>
</mask>
<g mask="url(#mask0_1509_11374)">
<path d="M8.78025 13.2916H5.99152C5.68352 13.2916 5.45786 13.1553 5.31456 12.8826C5.1711 12.61 5.18875 12.3474 5.3675 12.0947L11.3733 3.4306C11.4967 3.25781 11.6542 3.13964 11.8458 3.07608C12.0372 3.01268 12.2364 3.01802 12.4432 3.09212C12.6501 3.16607 12.8014 3.29264 12.8972 3.47185C12.993 3.65106 13.0285 3.84409 13.0038 4.05096L12.3147 9.62498H15.7345C16.0612 9.62498 16.2915 9.77134 16.4255 10.0641C16.5595 10.3566 16.5201 10.6293 16.3075 10.882L9.66689 18.8356C9.53413 18.9932 9.37196 19.0951 9.18037 19.1416C8.98879 19.1879 8.80194 19.1693 8.61983 19.0859C8.43772 19.0025 8.2964 18.875 8.19587 18.7034C8.09534 18.5318 8.05745 18.3426 8.0822 18.1358L8.78025 13.2916Z" fill="#FF5620"/>
</g>
</svg>
